<?xml version="1.0" encoding="utf-8"?>
<!-- Generator: Adobe Illustrator 26.2.1, SVG Export Plug-In . SVG Version: 6.00 Build 0)  -->
<svg version="1.1"
	 id="svg4318" mapsvg:geoViewBox="-109.449403 -17.500036 -66.416233 -55.907355" xmlns:cc="http://creativecommons.org/ns#" xmlns:dc="http://purl.org/dc/elements/1.1/" xmlns:mapsvg="http://mapsvg.com" xmlns:rdf="http://www.w3.org/1999/02/22-rdf-syntax-ns#" xmlns:svg="http://www.w3.org/2000/svg"
	 xmlns="http://www.w3.org/2000/svg" xmlns:xlink="http://www.w3.org/1999/xlink" x="0px" y="0px" viewBox="0 0 612.5 708.7"
	 style="enable-background:new 0 0 612.5 708.7;" xml:space="preserve">
<style type="text/css">
	.st0{stroke:#FFFFFF;stroke-miterlimit:10;}
</style>
<path id="CL-AI" class="st0" d="M316.6,447.7l0.2,0l0.4-0.9l-0.1-0.4l-0.8-0.2l-0.3,0.3l-0.3,0.1l-1.3-0.6l-0.7-0.8l-0.6-0.6l-1-0.8
	l-0.4-0.2l-0.3,0.1L311,444l-0.2,0.3l-0.5,0.1l-0.6-0.1l-0.3-0.1l-0.2-0.2l-0.1-0.4l0.2-0.9l0.3-0.1l0.8,0l0.3-0.1l0.5-0.7l-0.9-1.3
	l-0.4-0.8l0.1-0.7l0.3-0.5l0.4-0.2l0.3,0l0.8,0.2h0.4l1.1-0.4l2.6-1.4l0.7-0.6l1.6-1.4l0.5-1.1l0.4-1l1.1-3l0.1-1.7l-0.7,0.7l-1,0.7
	l-1.4-1l-1-0.9v-0.5l-1.2-0.6l-0.8-0.3l-0.4-0.1l-0.5-0.1l-0.4-0.2l-1.3-1.3l-0.1-0.6l0.1-0.6l0.9-0.8l0.9-0.8l0-0.7l0.4-0.9
	l1.1-2.2l0.3,0l0.6-0.1l1.3-0.4l-0.1-0.5l0,0l0.9,0l0.3,0.2l0.8,0.2l2.5,0.4l0.2-0.7l0.4-0.6l0.6-0.6l0.4-0.3l0.6,0.2l0.1,0.8l1,1.7
	l0.3,0.1l0.6,0.1l0.4,0.3l0.4,0.5l0.2,0.5l0.1,0.7l1.8-0.2l0.2-0.7l1.8-0.9l0.4,0l1,0.5l0,0l0.6,0.9l0,0.4l-0.1,0.3l-1.2,1.8
	l-0.4,0.4l-0.5,1.4l0.2,0.5l0.1,0.5l0,2l-0.6,0.4l-0.1,0.4l0.3,0.5l0.6,0.1l2,0h1l0.8-0.1l1,0l2.6,0.5l0.4,0.4l0.7,1.5l-0.2,0.6
	l-0.3,0.3l-0.6,0.1l-0.5,1.3l0.1,0.5l0.1,0.5l-0.1,0.5l-0.7,0.9l-0.4,0.1h-0.4l-0.4-0.1l-0.3-0.2l-0.6-0.5l-0.4-0.3l-0.3-0.1h-0.3
	l-0.5,0.2l-0.7,0.4l-0.3,0.1l-0.3,0.1l-0.3-0.1l-0.3-0.1l-0.3-0.1l-0.7-0.2l-0.3,0.1l-0.2,0.4l-0.4,0.1l-1.4-0.2l-0.3-0.1l-0.3-0.1
	l-0.3-0.2l-0.4-0.1l-0.4,0.2l-0.1,0.4l0.2,2.1l1.7,0.4l1.7,0.2l0.9,0.1l2,0.7l0.4,0.4l0.7,1.4l2.2,2.8l0.4,1.4l-2.2,3.2l-1.8,0.8
	l-0.3,0l-0.3,0l-0.3,0.1l-0.5,0.2l-0.5,0.4l-0.4,1.8l-0.1,1.4l0.5,2.2l0.4,0.2l0.4,0.1l0.6,0.3l0.3,0.4l0.3,1.4l-0.4,0.4l-0.1,0
	l-0.3,0.2l-0.4,0.6l-0.3,0.4l-0.3,0.5l-0.3,0.4l-0.3,0.2l-0.4,0.1l-0.3,0l-0.7,0.3l0.9,1l0.4,0.2l0.4,0.2l0.3,0.5l0.1,0.5l0.2,3
	l0.5,1.1l0.2,0.9l0.1,2.1l-0.1,0.6l-0.2,0.4l-1.6,1.6l-0.5,0.2l-0.9,0.1l-0.3,0.3l-0.5,4.1l1.1,1.5l0.4,0.5l0.1,0.6l-0.2,0.9
	l-0.2,0.3l-1.7,0.8l-0.8,1.4l-1,1.1l-0.5,0.1l-0.5-0.2l-0.3,0l-0.5,0.2l-0.3,0.1l-0.3,0.2l-0.2,0.3l-0.1,0.5l0.2,0.2l0.4,0.3
	l-0.3,1.7l-0.1,0.4l-0.2,0.4l-0.7,1.1l-0.3,0.6l-0.4,0.8l-1,2.9l0,0.5l0.2,0.4l0.5,0.5l0.4,0.2l0.6,0.1l1.1,1.4l0.3,2.2l0.1,3
	l-1.7,1.1l-0.8,0.3l-0.9,0.5l-0.3,0.2l-0.2,0.3l-0.1,0.4l0.3,1.4l0.1,0.4l0.2,1.3l0.1,1.6v0.9l-0.1,0.4l-0.3,0.5l-1.6,1.6l-0.4,0.3
	l-0.2,0.2l-0.3,0.2l-0.4,0.2l-0.6,0.1l-0.5,0l-0.3,0.1l-0.5,0.2l-0.4,0.3l-0.3,0.4l-0.9,1.4l-1.3,3l0,0.4l0.1,0.2l0,0l-0.2-0.2
	l-3.8-3.3l-3.1-2.7l-4.5-3.9l0,0l0-0.2l-0.6-0.4l-0.7-0.1l-0.4,0l-0.5,0.2l-0.3,0.1l-0.3,0.1l-0.5,0l-0.7-1l-0.3-1.3l0.6-0.8
	l1.3-1.3l0.7-0.5l0.7,0.4l1.3,1l0.3-0.3l0.1-2.3l-1.1-0.4l-0.3-0.4l-0.2-0.2l-0.3-0.1l-0.7-0.1l0.3-0.3l1.1-0.3l-1.9-0.7L297,499
	l-1.2-1.4l-1.2-0.9l-0.5,0l-0.3-0.1l-0.1-0.9l0.3-0.6l1.4-0.8l1.4,0.6l0.8,0.7l0.3,0.5l0.2,0.4l0.2,0.7l0.3,1.6l0.8,0.8l0.4-0.1
	l-1-2.5l-0.8-1.4l-0.1-0.4l0.3-0.2l1.3-0.1l1.6,0.1l0.3,0.2l0.4,0.5l0.7,0.3l1.4,0l1.1-0.3l2.3,2.1l0,0.9l0.5,1.2l0.2-0.7l0.6-0.6
	l0.6,0.1l0.3,0.1l0.3,0.2l0.6,0l0.6-0.6l0.2-0.3l0.1-0.5l0-0.6l-0.2-0.4l-0.1,1l-0.2,0.4l-0.5,0.4l-0.3,0.1l-0.3-0.1l-1.1-0.7
	l-1.2-1.4l-0.9-1.3l-0.1-1.5h1.1l0.1,0.6l0.4,0.6l0.2,0.2l0.3,0.1l0.7,0.2l2.7,0.2l-0.6-0.5l-0.9-0.3l-0.4,0l-0.3,0l-0.5,0.1
	l-0.5-0.1l-0.6-0.4l-2.5-3.1l-0.4-1l0.1-0.5l0.3-0.4l0.4-0.4l0.4-0.6l-0.2-1.3l-0.6-0.7l-0.6,1.2l0.5,0.4l0.1,0.4L305,491l-0.3,0.3
	l-0.3,0.2l-1.5,0.7l-1-0.2l-0.2-0.1l-0.3-0.8l-0.4-0.1l-0.6,0l-2.2-0.4l-1-0.2l-1.1,0.3l-0.3,0.2l-0.6,0.1l-0.9-0.1l-0.4-0.1
	l-0.9-0.5l-0.4-0.6l1.8-2.7l0.6-0.4l0.3,0l1.1,0.1l0.4,0.1l0.7,0.6l0.3,1l0.5,1.2l0.5,0.6l0.5,0.2l0.5,0.1l0.3-0.1l-0.4,0l-0.7-0.2
	l-0.4-0.4l-0.2-0.7l0.5-0.9l1.2-0.3l0.7,0.3h0.3l0.6-0.2l-0.2-1.5l-0.9,0.5l-0.5,0.5l-1.5,0.3l-0.3-0.1l-2.7-2.9l-0.1-0.4l0.7-1.3
	l1.3-1.3l0.3-0.6l0.2-0.4l0.2-0.4l1.6-0.3l0.3,0.1l0.1,0.5l0,0.7l0.6,1.2l0.1,0.1l-0.1-0.3l-0.4-1.1v-0.5l0.1-0.6l0.2-0.3l0.9-0.9
	l1.4-2.2l-1-1l-0.3-0.1l-0.3,0l-0.3,0.1l-0.4,0.2l-0.4-0.1l-1.4-2.2l-0.2-1.1l0-0.5l-1-0.4l-3.6,0.4l0,1.1l0.4-0.1l0.5,0l1.5,0.4
	l-0.2,0.5l-0.4,0.3l-0.3,0l-0.8-0.1l-1-0.5l-3.1-1.5l-1.6-0.8l-0.9-1.8l0-0.5l0.2-0.4l0.7-0.9l0.9-0.9l-0.1-1.3l-0.3,0.5l-0.2,0.6
	l-1.3,1.4l-0.5,0.4l-0.9,0.6l-2.1,0.6l-0.5-0.1l-0.5,0l-0.9,0.3l-0.8,0.4l-0.4,0.3l-0.7,1.2l0.3,0.3l0.6-0.5l1.4-1l0.4,0l0.3,0.2
	l1,3.1l-0.1,0.5l-0.8,0.6l-0.7,0.3l-0.3,0.1l-0.1,0l-0.1,0l-0.8-0.3l-1-1.1l-0.9-1.6l-0.1-1.3l0.2-1.7l0.8-1.2l0.3,0l0.3,0l0.4,0.1
	l0.6-0.3l1.6-1.4l-0.1-0.7l0.6-0.7l0.3-0.3l0.9-0.5l0.6,0.5l0,0.2l0.1-1.1l0.2-0.9l1.4-1.6l0.5-0.1l1.2,0l1.7-1.9l0.4-1l0.8-2.5
	l0.4-1.5l0.2-0.3l2.8-0.4l1.1-0.3l0.4,0.2l0.2,0.6l0.7-0.5l1.4-0.2l0.3,0.2l0.3,0.5l0.7,2l-0.4,2l-0.2,0.5l-0.3,0.6l-0.3,0.3
	L300,460l0.3,0l0.8-0.7l0.2-1l0-0.4l-0.1-0.4l0.2-0.3l1,1l0.1,0.4l0,0.5l-0.2,0.5l-0.2,0.3l-0.3,0.4l-0.6,0.6l-0.7,0.4l-0.9,0.4
	l-1.5,0.5l-0.4,0l-0.4-0.2l-0.6-0.4l-0.3-0.3l-0.6-0.4l1.1,1.1l0.3,0.2l0.2,0.2l0.3,0l1.3-0.3l1-0.3l0.4-0.2l0.7-0.3l0.3-0.1
	l0.5,1.7l1.3,0.9l0.4,0.2l0.1,0l0.1-0.2l-0.4-0.5l-0.3-0.2l-0.4-0.3l-1-1.3l0.4-1l0.3-0.3l0.9-0.1l1.7,1.9l-0.1,1l-0.1,0.7l-0.2,0.5
	l-0.2,0.4l-0.9,1.2l-0.4,0.4l-1.1,1.6l1.1,0.8l0.5,0l0.4-0.2l0.2-0.3l0.7-1.5l0.2-0.4l0.3-1l2.2-2.8l0.5-1.6l1.4-2.1l-0.2-0.2
	l-1.2,1.8l-0.5,0.9l-0.2,0.6l-0.4,0.8l-0.3,0.4l-0.4,0.2l0-0.8l0.1-0.4l0.4-1l0.2-0.7l0.2-0.8l0-0.6l-0.3-1.1l-0.3-0.8l1.6-3.1
	l1.3-1.5l0.2-0.3l0.4-0.4l0.3-0.2l0.3,0h0.7l0.7,0.1l0.4-0.1l0.3-0.3l-1.8-0.6l-0.5,0.1l-0.6,0.2l-0.4,0.4l-0.4,0.7l-0.2,0.3l-1,1
	l-0.3,0.1l0.1-1.7l0.7-4.2l1.5-1.4l1.3-1l1-0.4l0.4,0.4l0.1,0.6l0.4,0.4l0.5,0.5l1.1,0.8l0.8,0.3L316.6,447.7L316.6,447.7z
	 M316.7,434.3L316.7,434.3l-0.7,0.6l-0.6,0.3l-0.9,0.9l-0.1,0.3l-0.1,0.2l-0.1,0.1l-0.9,0.7l-0.8,0.4l-0.4,0.1l-0.5,0.1l-0.2,0
	l-0.2-0.1l-1.4-1.6l-0.1-0.2l0-0.2l0.1-0.2l1.3-0.5l0.2,0.1l0.1,0.1l0.2,0.2l0.5-0.1l0.1-0.1l-0.3-0.3l-0.8-0.4l-0.5,0.3l-0.1,0.2
	l-0.1,0.1l-0.2,0l-0.2-0.1l-0.1-0.2l-0.4-0.9l-0.2-0.4l-0.2-1.2l0.5-0.8l0.1-0.1l0.4-0.1l0.1,0l1.3-0.2l0.2-0.8l0.1-0.7l0-0.3l0-0.2
	l0.3-0.7l0.1-0.2l0.2-0.1l1.6-0.5l1.2-0.3l0.1,0l1.5,1.3l1,0.4l0.2,0.2l0.6,1l0.1,0.2l0,0.2l-1,1.5l-0.1,0.1l-0.1,0.1l-0.2,0.1
	l-0.8-0.1l-0.1-0.1l-0.2-0.2l-0.7-0.3l0,0.2l0.1,0.2l0.8,0.5l0.4,0.1l0.5,0.1l0.1,0.3l-0.2,0.4l-0.2,0.3L316.7,434.3L316.7,434.3z
	 M286.6,508.7l-0.2,0.1l-0.3,0.1l-0.6-1.4l-0.2-0.9l-0.3-1.8l0-0.3l0.3-0.8l-1.3-0.8l-0.8,0.4l-0.2,0.1l-0.3,0.1h-0.3l-0.2,0
	l-0.2-0.2L282,503l0-0.2l0.1-0.2l0.3-0.2l0.2-0.2l0.4-0.2l0.5,0l0.3,0l0.2-0.1l0.3-0.1l0.2-0.2l0.2-0.3l0.2-0.3l-0.2-0.1l-0.6,0.4
	l-1.7,0.2l-0.1-0.2l-0.5-4.2l0.1-0.2l0.5-0.7l0.4-0.3l1.9-0.5l0.2,0l0.2,0.2l0.8,2.5l0.1,0.3l0.1,1.1l0.5,1.5l0.3,0.9l0.4,0.4
	l0.5,0.8l0.7,1.9l0.1,1.7l-0.1,0.4l-0.1,0.2L286.6,508.7L286.6,508.7z M294.1,508.5l-1.6-1.1h-0.2l-0.2,0.1l-0.2,0.1l-0.2,0
	l-1.5-0.3l-0.8-0.5l-0.2-0.2l-0.1-0.2l-0.2-1.4l0.1-0.4l0.1-0.2l0.1-0.2l0.9-1l0.2-0.1l0.8-0.1l0.2,0l0.1,0.3l0.3,0.4l0.1,0.3
	l0.1,0.2l0.6,0.5l0.6-0.8l0-0.2l-0.2-0.2l-0.1-0.1l-0.4-0.1l-0.4-0.8l-0.1-0.2l-0.2-0.7v-0.2l0-0.3l0.6-2.9l0.1-0.3l0.1-0.2l0.2-0.2
	l0.2,0.1l0.2,0.3l0.1,0.2l0.1,0.3v0.4l0.1,0.8l0.2,1.4l1.2,2.1l-0.3,0.9v1.1l0.1,0.9l0.1,0.3l0.6,0.9l0.2,0l0.1-0.2v-0.2l-0.1-0.2
	l0-0.2l0.2-0.1l0.1,0.1l0.2,0.1l0.1,0.1l0,0.3l-0.1,0.5l-0.1,0.3l-0.1,0.2l-0.1,0.1l-0.7,0.4l-0.2,0.1l-0.3,0L294.1,508.5
	L294.1,508.5z M288.9,503.7l-0.2,0l-0.2-0.1l-1.8-4.1l-0.8-2.5l0-0.6l0.4,0l0.8,0.2l1.5,0.4l0.4,0.2l1.1,0.9l1.5,0.4l0.1,0.2l0,0.3
	l0,0.4l-0.4,2.8l-0.1,0.2l-0.2,0.1l-0.4,0l-0.7,0.5l-0.3,0.2l-0.4,0.3L288.9,503.7L288.9,503.7z M305.6,444.2l-0.8-0.3l-0.5-0.6
	l-0.5,0l-0.7,0.2l-0.2,0l-0.5,0l-0.2-0.1l-0.1-0.1l-0.1-0.2l-1.2-1.4l-0.4,0.2l-0.9,0.2l-0.2,0l-0.1-0.1l-0.1-0.5l-0.1-0.6l0-0.2
	l0.1-0.4l0.2-0.3l0.4-0.4l0.2-0.1l0.2-0.1l0.3,0l0.1,0.1l0.2,0.1l0.6-0.1l1-0.2l0.3-0.1l0.5-0.3l0.2-0.1l0.2,0l0.3,0l0.2,0.1
	l0.1,0.1l0.8,0.6l0.1,0.1l0.1,0.1l0.1,0.1l0.5,0.8l0.2,0.5l0,0.2l0,0.2l0,0.5L305.6,444.2L305.6,444.2z M298,494.8l-0.5-0.3
	l-1.6-0.7l-0.2-0.2l0-0.2l1-1.2l0.1-0.1l0.2-0.1l1.2-0.7l0.3-0.1l2.9,1l1.6,0.6l0.3,0l0.2-0.1l0.4-0.3l0.2-0.1l0.1,0l0.2,0.1
	l0.2,0.3l0.1,0.2l-0.1,0.3l-0.2,0.7l-0.2,0.2l-0.4,0.2l-0.2,0l-0.5,0l-1.4,0l-0.3,0l-0.3-0.1l-0.2-0.1l-0.3-0.1l-0.2,0l-2.1,0.6
	L298,494.8L298,494.8z M298.7,435.6l-0.2,0l-0.4-0.1l-0.2-0.1l-0.1-0.1l-0.2-0.2l-0.3-0.4l-0.5-1.1l0-0.2l0-0.8l0.2-0.2l1.8-0.5
	l0.2,0l1.1,0l2.1,0.1l0.4,0.1l0.2,0.1l0.3,0.2l0.1,0.1l0.2,0.2l0.3,0.5l0.1,0.3l-1.8,0.5l-2.2,1l-0.3,0.2L298.7,435.6L298.7,435.6z
	 M288.3,459.2l-0.2-0.2l-0.1-0.2l-0.1-0.6l0.1-0.2l0.1-0.1l1.5-0.4l0.2,0.1l-0.1-0.4l-0.3-0.1l-0.4,0.1l-0.5,0l-0.2-0.1l-0.1-0.3
	l-0.5-1.7l0.1-0.2l0.2-0.2l0.3-0.1l1.2,0.5l0.2,0.1l0.2,0.2l0.8-0.5l1.1-1l0.7-0.3l0.3,0l0.1,0.3v0.3l-0.1,0.3l-0.6,2.6l-0.1,0.2
	l-0.1,0.2l-0.3,0.4l-1.4,1.3l-0.2,0.1l-0.9,0.1l-0.3,0l-0.5-0.2L288.3,459.2L288.3,459.2z M281.4,508.5l0.3-0.5l0.4,0.1l0.4-0.1
	l0.2,0l0.3-0.2l0.1-0.1l0.2-0.3l0.1-0.3l-0.1-0.1l-0.2,0.2l-0.2,0.2l-0.2,0.1l-0.3,0h-0.2l-0.9-0.1l-0.6-0.3l-0.3-0.6l0.2-2.1
	l0.4-0.7l0.3-0.1l2.7-0.3l0.6,0.1l0.1,0.3l0.3,2.7l-0.1,0.2l-0.6,0.5l-0.3,0.2l-0.8,0.6l-0.4,0.3l-0.2,0.1l-0.2,0.1l-0.4,0l-0.5,0
	L281.4,508.5L281.4,508.5L281.4,508.5z M296.2,453.3l-0.2-0.1l-0.1-0.2l-0.1-0.3l0-0.2l0.1-0.2l0.3-0.3l0.2-0.3l0-0.7l-0.1-0.8
	l-0.1-0.6v-0.3l0-0.3l0.1-0.3l0.1-0.2l0.1-0.4l0.2-0.4l0.2-0.3l0.3-0.1l1.2,0.6l0.2,0.2l0.1,0.2l0.3,0.5l0.1,0.4l0.3,1l0.2,0.8
	l-0.2,0.7l-0.1,0.2l-2,1.6l-0.2,0.1L296.2,453.3L296.2,453.3z M290.7,496.5l-0.2,0l-0.7-0.2l-0.8-0.4l-0.2-0.1l-0.1-0.2l0.2-0.4
	l-0.3-0.2l-0.3-0.1l-0.3,0l-0.3,0.2l-0.3,0.4l-0.2,0.3l-0.2,0.1l-0.3,0.1l-0.4,0l-0.3-0.1l-0.2-0.2l0.7-1.1l0.4-0.3l0.2-0.1l0.9-0.3
	l0.4-0.1l0.3,0l1.2-0.8l0.9-1.3l0.8-0.4l0.2,0.1l0.1,0.7l0,0.2l0,0.7l0,2.7l-0.7,0.5l-0.1,0.1L290.7,496.5L290.7,496.5z M306.6,453
	l-0.1,0l-0.2-0.1l-1.3-1.5l-0.1-2v-0.3l0-0.3l0.1-0.2l0.1-0.3l0.7-1l0.1-0.1l0.3,0l0.2,0l0.9,0.3l0.1,0.2l0,0.6l-0.4,3.5l-0.3,1
	L306.6,453L306.6,453z M298.5,439.6l-0.1,0l-0.9-0.3l-0.1-0.2l0.2-0.5l2-1.9l0.2-0.1l0.2-0.1l0.2,0l2.3,0.6l0.2,0.2l0.5,0.6l0.1,0.2
	l-0.1,0.2l-0.5,0.3l-0.3,0.1l-0.8,0.2l-0.2,0l-1,0l-0.7-0.1l-0.2,0.1l-0.2,0.1L298.5,439.6L298.5,439.6z M305.4,434.4l-0.2,0
	l-0.8-1.1l0-1.7l0.1-0.3l0.2-0.2l1.3-0.3l0.2,0l0.2,0.1l0.2,0.2l0.4,1l0.5,1.5l0,0.2l-0.1,0.1l-1.4,0.4L305.4,434.4L305.4,434.4z
	 M302.2,419.9l-0.3-0.4l-1.3-0.4l-0.6-0.2l-0.1-0.1l0.3-1l0.2-0.2l0.2-0.1l0.8,0.1l0.2,0.1l1.7-0.3l0.7-0.6l0.9,1l0.3,0.8l0.1,0.4
	l-1.2,0.1l-0.2-0.2l-0.2-0.1l-0.1-0.2l0.2-0.2l0.1-0.2l-0.2-0.1l-0.3,0l-0.8,0.2l-0.1,0.4l0.2,0.2l0,0.2l0.3,0.2l-0.4,0.5l-0.2,0.1
	L302.2,419.9L302.2,419.9z M302.1,445.6l-0.2,0l-1.5-0.6l-0.1-0.2l-0.3-1.2l0.3-0.4l0.8-0.3l0.2,0l0.2,0.1l0.1,0.1l0.2,0.5l0.1,0.1
	l0.2,0.1l0.2,0.1l0.2,0l0.5,0l0.2,0l0.5-0.1l0.4-0.1l0.3,0.1l0.2,0.1l0.1,0.1l0.2,0.3l0.1,0.4l0,0.3l-0.1,0.3l-0.1,0.1l-0.9,0
	l-1.1,0L302.1,445.6L302.1,445.6z M295.3,501.7l-0.1-0.1l-0.8-1.7l0-0.2l0-0.3l0-0.5l0-0.7l0.4-0.7h0.2l0.3,0.2l0.4,0.4l1.4,1.4
	l0.3,0.6l-0.5,0.8l-0.1,0.1L295.3,501.7L295.3,501.7z M305,461.3l-0.4-0.4l-0.1-0.1l-1.6-2.1l0-0.3l0.2-0.5l0.1-0.2l0.2-0.1l0.6,0
	l0.2,0l1.2,0.5l0.6,0.4l0.2,0.2l0.1,0.3l-0.1,0.3l-0.7,1.4l-0.2,0.3L305,461.3L305,461.3L305,461.3z M296.9,430.9l-1.4-0.3l-0.2-0.2
	l-0.1-0.2l-0.2-0.6l0.1-0.3l0.3-0.3l0.2-0.1l2.5-0.8l0.6,0.2l0.4,0.7l0.1,0.3l0,0.2l-0.3,0.1l-1.1,0.3l-0.9,0.2l-0.2,0.1
	L296.9,430.9L296.9,430.9z M302.3,452.3h-0.1l-0.7-0.1l-0.2-0.2l-0.4-1l-0.2-0.7l0-0.4l0.6-0.8l0.4-0.3l0.2,0l0.6,0.3l0.6,0.6
	l0.3,0.5l0,0.3l-0.1,0.6l-0.3,0.7L302.3,452.3L302.3,452.3z M281.3,510.6l-0.1,0l-0.2-0.1l-0.2-0.2l-0.1-0.3l0.1-1.2l0.3,0l0.6,0.3
	l0.6,0.1l0.3,0l0.2,0l0.1-0.1l0.8-0.7l1-0.9l0.6,0.4l0.2,0.5l0.1,0.2l0,0.3l-0.3,0.4l-0.2,0.2l-2.2,0.8L281.3,510.6L281.3,510.6z
	 M300.3,449.6l-0.1-0.1l0-0.2l0.1-0.5l0.1-0.3l0.1-0.1l0.2-0.1l0-0.4l0.1-0.2l0.2-0.2l0.1-0.2l0.1-0.2l0.2-0.2l0.2,0l0.2,0.1
	l0.2,0.1l0.2,0l0.3,0l0.1,0.1l0.1,0.1l0.1,0.1l0.4,0.2l0.2,0.1l0.2,0.1l0.2,0l0.3-0.3l0.2-0.1l0.2,0.2l0.1,0.3l-0.1,0.4l-0.1,0.3
	l-0.1,0.2l-0.2,0.4l-0.1,0.4l-0.2,0l-0.3-0.2l-0.1,0l-0.2-0.1l-0.2-0.3l-0.3-0.1l-0.3,0l-0.4-0.2l-0.4-0.1l-0.1,0l-0.2,0.2l-0.3,0.1
	l-0.2,0.2l-0.1,0.4l-0.1,0.2L300.3,449.6L300.3,449.6z M299.9,479.4l-0.2-0.1l-0.6-0.7l0-0.3l0-0.3l0.4-1.2l0.1-0.2l0.1-0.1l0.1,0
	l1.7,0.1l0.7,0.6l-1.1,1.5l-0.3,0.3l-0.1,0.1l-0.2,0.1l-0.6,0.2L299.9,479.4z M304.1,438.3l-0.5-0.5l-0.4-0.5l-0.1-0.2l-0.1-0.2
	l-0.1-1.3l0.1-0.3l0.2-0.2l0.2-0.1l0.2,0l0.3,0l0.3,0.1l0.1,0.2l0.8,2.1l0.1,0.6l-0.1,0.2l-0.1,0.2l-0.2,0.2l-0.3,0l-0.2,0
	L304.1,438.3L304.1,438.3z M298.6,504.2l-0.2-0.3l-0.1-0.1l-0.2-0.2l-0.9-0.6l-0.3-0.1l-0.7-0.3l-0.2-0.2l-0.2-0.3l-0.1-0.2l1.7-1.3
	l0.2-0.1l0.2,0l0.3,0.1l0.2,0.2l0,0.3l-0.2,0.6l0,0.2l0.2,0.3l0.4,0.6l0.2,0.3l0.3,0.2l0.2,0.2l-0.1,0.3l-0.1,0.1l-0.4,0.2
	L298.6,504.2L298.6,504.2z M293.1,452.4l0-0.2l0-0.3l0-0.2l0.2-1l0.1-0.2l0.1-0.2l0.2-0.2l0.1-0.1l0.2-0.1l0.7-0.3l0.3,0l0.1,0.1
	l0.1,0.2l-0.2,1.8l-0.4,1l-0.2,0.2l-0.2,0.1l-0.3,0l-0.2,0l-0.7-0.2l-0.1-0.1L293.1,452.4L293.1,452.4z M303.3,457.2l-0.1-0.1
	l-0.1-0.2l-0.2-0.6l0-0.3l0.1-0.3l0.1-0.2l0.4-0.6l0.2-0.2l1.9-1.1l0.2,0l0.2,0.3l0.1,0.2l0.1,0.3l0.1,0.9l-0.2-0.1l-0.1-0.1l-0.2,0
	l-0.5,0.1l-0.3,0.1l-0.2,0.9l-0.4,0.8L303.3,457.2L303.3,457.2z M286.9,492l0.1-0.3l0-0.2l-0.1-0.1l-0.6-0.2l-0.2,0l-0.3,0l-0.2-0.1
	l-0.2-0.2l0.5-0.5l1.6-0.9l0.2,0.1l0.4,0.5l0.2,0.4l0.2,0.8l-0.1,0.3l-0.2,0.3l-0.1,0.1l-0.2,0.2l-0.4,0.2l-0.9,0.2L286.9,492
	L286.9,492z M301.8,455.9l-0.6-1.4l-0.3-0.5l-0.2-0.5l0.1-0.3l0.1-0.1l0.5-0.4l0.2,0l0.9,0.3l0,0.6l0,1.4l-0.1,0.3l-0.2,0.5
	L301.8,455.9L301.8,455.9L301.8,455.9z M297.1,436.5l-0.2,0l-0.8-0.5l-0.8-1.3l0-0.3l0.1-0.2l0.1-0.1l0.8-0.3l0.3,0.1l1.5,2.1l0,0.2
	L297.1,436.5L297.1,436.5z M297.1,446.3l-1.2-0.7l-0.1-0.1l-0.2-0.2l-0.2-0.3l-0.1-0.2l0.1-0.3l0.2-0.2l0.3-0.1l0.2,0l0.2,0h0.6
	l0.3,0.1l0.2,0.2l0.2,0.3l0.2,0.3l0.5,1.2l-0.1,0.1l-0.2,0.1l-0.3,0.1l-0.3-0.1L297.1,446.3L297.1,446.3z M301.5,431l-0.3-0.1
	l-0.4-0.1l-0.3-0.1l-0.1-0.1l-0.1-0.2l0.1-1.3l1.3,0.2l0.3,0.1l0.3,0.1l0.1,0.1l0.1,0.2l0.1,0.2l0.1,0.3l0,0.3l-0.1,0.3l-0.2,0.1
	L301.5,431L301.5,431z M312.9,421.5l-0.4-0.1l-1-0.5l-0.2-0.2l-0.1-0.3l0-0.3l0.2-0.5l0.2-0.2l0.9-0.5l0.3,0l0.2,0l0.1,0.1l0.1,0.1
	l0,0.3l-0.2,1.9L312.9,421.5L312.9,421.5z M302,427l-0.2,0l-0.2-0.1l-0.5-0.4l-0.2-0.3l-0.4-1.6l0.8-0.9l0.2,0l0.8,1l0.5,0.6
	l-0.7,0.3l0,0.3l0,0.2L302,427L302,427z M306.6,423.5l-0.9-1.6l-0.4-0.9l0-0.3l0.1-0.3l0.2-0.3l0.1-0.1l0.3,0l0.9,1.3l0.3,1.3
	l-0.1,0.5l-0.4,0.5L306.6,423.5L306.6,423.5z M296.5,505.3l-0.3-0.6l-0.6-1.2l-0.1-0.2l0-0.2l0.2-0.2l0.2,0l0.3,0.2l1,0.6l0.6,0.4
	l0.2,0.2l0.1,0.2l0,0.2l-0.2,0.2l-0.3,0.1l-0.7,0.4l-0.3,0.1L296.5,505.3L296.5,505.3L296.5,505.3z M297.8,444.5l-0.7-0.5l-0.2-0.2
	l-0.1-0.1l-0.1-0.2l0-0.3l0.2-1l0.2-0.3l0.3,0l0.2,0.1l1,1l-0.4,1.6l-0.1,0.1l-0.2,0L297.8,444.5L297.8,444.5z M296.1,433.6l-0.5,0
	l-1.6,0l-0.6-0.3l0-0.2l0.1-0.2l0.5-0.5l0.2-0.1l0.3,0l0.2,0l0.3,0.1l1,0.2l0.2,0.1l0.1,0.9L296.1,433.6z M296.1,479.1l-0.3-0.7
	v-0.7l0.1-0.2l0.8-0.4l0.2-0.1l0.4-0.1l0.4,0l0.3,0.1l0.1,0.1l0,0.3l-0.1,0.4l-0.1,0.2l-1.4,1.2l-0.2,0.1l-0.1-0.2L296.1,479.1
	L296.1,479.1z M288.1,437.7l-0.1,0l-0.2-0.1l-0.4-1.3l-0.1-0.2l0-0.2l0-0.2l0.1-0.2l0.3-0.4l0.3-0.1l0.2,0.1l0.7,1.2v0.8l-0.6,0.6
	L288.1,437.7L288.1,437.7z M302.5,428.8l-1.3-0.7l-0.2-0.2l-0.3-1l0.2-0.1l2,0.6l0.1,1.5l-0.1,0.2l-0.3-0.1L302.5,428.8L302.5,428.8
	z M297.9,431.5l-0.1,0l-0.1-0.1l-0.2-0.2l-0.1-0.2l0-0.2l0.1-0.2l0.9-0.4l1.3-0.1l0.7,1l-0.7,0.2L297.9,431.5L297.9,431.5z
	 M301.3,504.6l-0.1,0l-0.3-0.2l-1.1-0.8l-0.8-0.8l-0.1-0.3l0.1-0.3l0.3-0.1l0.2,0l0.1,0l0.3,0.1l1.3,0.9l0.2,0.1l0.1,0.2l0.1,0.2
	L301.3,504.6L301.3,504.6z M306.1,457.9l-0.1,0l-1.3-0.4l-0.3-0.2l-0.1-0.2l0-0.3l0.6-1.2l0.2-0.1l0.1,0l0.6,0.6l0.4,1.8
	L306.1,457.9L306.1,457.9z M306.1,436.1l-0.5-0.3l-0.2-0.2l-0.1-0.7l0.1-0.3l1.5-0.4h0.2l0.2,0.1l0,0.2l-0.2,1.3l-0.2,0.2l-0.2,0.1
	l-0.3-0.1L306.1,436.1L306.1,436.1z M303.8,424.6l-1-0.2l-0.4-0.1l-0.2-0.1l-0.1-0.1l-0.1-0.2l-0.1-0.2l0.5-0.5l0.3-0.3l0.3-0.1
	l0.1,0.1l0.6,0.4l0.6,0.7l-0.1,0.3l-0.1,0.2l-0.1,0.1L303.8,424.6L303.8,424.6z M301.6,436.5l-0.3,0l-1.3-0.6l-0.2-0.2l0.2-0.2
	l0.7-0.1l0.4-0.1l0.2-0.1l0.3-0.2l0.2-0.2l0.2-0.1l0.5,0.1l0.1,0.2l-0.1,0.7l-0.1,0.2l-0.2,0.1l-0.5,0.2L301.6,436.5L301.6,436.5z
	 M289.3,491l-0.1,0l-0.5-0.4l-0.1-0.2l-0.3-1.1l0.1-0.1l0.3,0l1.1,0.2l0.1,0.1l0.2,0.3l0.3,0.5l0.1,0.2l-0.1,0.3l-0.5,0.2L289.3,491
	L289.3,491z M292,433.4l-0.1-0.1l-0.3-0.4l-0.1-0.2l-0.1-0.4l0-0.3l0-0.7l0.1-0.2l0.1-0.1h0.2l0.7,0.4l0.1,0.2l0,0.3l0,0.2l-0.2,1.1
	l-0.3,0.2l-0.2,0.1L292,433.4L292,433.4z M303.1,447l-0.9-0.3l-0.3-0.1l-0.1-0.2l0.1-0.2l0.2-0.1l0.6-0.2l0.3,0l1.3,0l0.2,0.1l0,0.3
	l0,0.3l-0.9,0.5l-0.1,0L303.1,447L303.1,447z M304,427.1l-1.3-0.2l-0.2-0.2l-0.1-0.6l2-0.2l0.2,0.1l0.1,0.7l0,0.3l-0.2,0.1l-0.2,0
	l-0.3,0.1L304,427.1L304,427.1z M314.5,416.3l0.6-0.4l0.6-0.1l0.5,0.5l0.3,0.1l0.2,0l0,0l-0.2,0.2l-0.8,0.1L314.5,416.3L314.5,416.3
	z"/>
<path id="CL-MA" class="st0" d="M312.6,577.2l-0.3,0l-0.4-0.1l-0.4-1.1l-0.2-2.3l-0.1-2.3l-0.3-1.8l-0.2-0.5l-0.6-0.7l0.1,0.5
	l0.4,1.1l0.1,1.1l0.7,6.9l-0.1,0.7l-0.4,0.2l-0.4-0.2l-2.5-2.1l-0.3-0.3l-0.2-0.6l0.1-0.8l-0.4-1.4l-0.6-1.5l0.6-0.4l0.1,0.5l1,2.3
	l1,1.6l0.4-0.1l-1-2.2l-1.4-3.2l0.5-0.2l0.4-0.3l0.6-0.8l-1.9,0.5l-1.1,1.4l-0.8-1.6l-0.4-1.5l-0.8-0.2l-0.7-0.2l-0.3-3.9l0.1-0.5
	l0.3-0.7l1.2,0.4l1.3,1.5l0.4,0.8l0.7,1.7l0.2,0.9l0.2-0.1l0.1-0.5l-1.3-3.8l-1.1-4.1l0.5-0.4l0.5,0.8l0.1,0.6l-0.3-2.3l-0.3-0.3
	l-0.3,0.2l-1.3,1.5l-0.3,0.2l-0.3,0.1l-2.4-0.7l-0.6-0.5l-0.3-2.3l-0.8-0.6l-0.3-0.2l-0.1-2.2l0.3-0.5l0.6-0.4l0.5-0.2l3,0l0.3,0.2
	l0.4,0.7l0.9-2.6l0-2.1l0.4-0.5l1.1-0.3h0.4l0.7,0.5l0.2,0.6l0.4,0.3l0.4-0.9l-0.8-0.8l-0.6-0.1l-0.5-0.2l-0.9-1l0-0.5l0.2-0.5
	l0.3-0.1l0.4-0.1l0.3-0.2l0.2-0.3l0.4-1.7l-2.4,2.4l-0.2,0.4l-0.3,1.3l-0.4,1.7l0.1,0.5l0.1,0.6l-0.1,0.4l-1.4,1.3l-0.2,0.1
	l-1.2-0.1l-1-1.2l-0.5-1.3l-0.9-2.1l-0.7-2.5l1-0.3l1.2,0.5l0.3,0.2l0.3,0.3l0.3,0.3l0.4,0.2l1.7,0.3l-0.6-0.5l-0.7-0.2l-1.1-0.8
	l-0.6-0.7l-2.2-0.2l-2.3-1.7l-2.8-2.8l-0.1-0.6l0.3-0.5l0.5-0.5l0.6-0.5l1.2-0.4l0.8,0.3l1.1-0.1l0.7,0.9l0.3,0.6l0.9,1l3.1,1.4
	l0.8,0.2l0.2,0l0.2-0.2l-3.4-1.6l-0.3,0l-0.3-0.1l-0.4-0.4l-2.1-3.8l0.1-0.8l0.3-0.5l0.9,0.1l0.6,0.2l1.3,1.4l3,1.3l0-0.6l-0.2-0.6
	l-1.4-0.6l-1.2-0.5l-2.6-1.3l-0.4-0.5l-0.3-1.3l1.3-0.8l0.7-0.2l0.6-0.1l0.4,0.2l0.5-0.1l0.1-0.6l-1.6,0.2l-1.1,0.3l-0.3-0.1
	l-0.3-0.8l-0.1-1l0.1-0.5l1-1l1.7-0.6l0.3-0.1l1.8,0.4l0.2,0.4l0.3,1.1l0.3,0.6l0.5,0.2l0.4,0.1l0.8,0.9l0.3,1.2l0.1-0.6l-0.3-0.9
	l-0.3-0.8l-0.2-0.2l-1-0.1l-0.3-1.4l0-1.1l-0.5-0.4l-1,0.1l-1.3-0.4l-0.2-0.3l-0.1-1.4l0.5-2.7l0.2-0.3l0.4,0l0.5,0.4l0.2,0.4
	l0.3,0.4l0.7,0.4l0.4,0.1l0.5-0.1l-0.6-0.3l-0.4-0.1l-0.2-0.2l-0.7-1.2l-0.4-3.2l0.2-0.4l0.4-0.6l0.2-0.2l0.3-0.2l0.4,0l0.4,0.3
	l0.3,0.3l0.4,0.1l0-0.4l-0.8-0.4l-1.9,0.2l-0.1,0.8l0.1,1.8l-0.9,1.6l-0.5,1.7l-0.1,1.1l-0.4,2.7l-0.3,0.4l-0.3,0.1l-0.3-0.2
	l-1.4-1.9l-0.3-1.7l0-3.6l0-3.9l-0.2-0.7l-0.3-0.6l-0.2-1v-0.6l0.1-0.4l0.8-1.3l0.5,0.4l0.4,0.1l0.3-0.1l0.5-0.4l0.4-0.1l1.1,0.1
	l0.9,0.3l0,0l4.5,3.9l3.1,2.7l3.8,3.3l0.2,0.2l0,0l1,0.3l-0.6,0.7l-3.7,0.1l-0.5,0l-1,2.6l-0.5,1.9l0.2,0.4l0.7,0.9l0.9,3.7
	l-0.3,0.4l-0.5,0.4l-0.4,0.4l-0.3,1.8l0.5,0.6l0.3,0.3l0.3,0.4l-0.1,0.6l-0.4,0.5l-0.3,0.6l-0.1,0.7l0.2,0.6l1.1,0.9l1.1,0.9
	l0.2,0.3l0.2,0.4l0.5,1.2l0.1,0.5l0.2,2.9l0.3,2l0.7,2.9l0.2,0.4l0.3,0.2l0.4,0.1l0.3-0.1l0.4-0.1l0.4-0.2l0.4-0.4l0.8-1l0.3-0.2
	l0.4-0.3l1.4-0.7h0.4l0.4,0.3l0.2,0.3l0.3,0.2l0.4,0.2l0.4-0.1l0.3-0.2l0.3-0.6l0.3-0.4l0.3-0.2l0.3-0.1l1.6,0.2l1,0.8l-0.1,0.5
	l-0.5,1.1l0.1,0.5l0.4,0.5l0.3,0.4l0.3,0.6l0.1,0.5l-0.3,3.2l-0.2,0.4l-0.7,0.1l-0.8,1.5l0.2,1l0.3,0.4l0.3,0.2l0.5,0.3l0.5,0.7
	l-0.2,0.6l-0.4,0.4l-0.2,0.6l0,1l0,0.8l-0.5,1.8l-0.3,0.3l-0.4,0.3l1.4,3.8l0.4,0.2l0.6,0.1l0.3,0.2l0.3,0.2l0.3,0.2l0.6,0.5
	l1.7,1.9l0.2,0.6v0.7l0.4,1.7l2.8,0l6,0h10.3l4.2,0h1.4l0.7,0.3l2.3,1l3.9,1.7l2.2,0l0.7,0l2.6,1.1l0.5,0.2l0.7,0.5l1.4,1l1.3,0.2
	l1,0.2l0.9,0.2l1.8,0.5l-0.1,1l-0.5-0.9l-0.4-0.2l-2.2-0.4l-1.5-0.1l-0.3,0l-1.6-0.3l-0.5-0.2l-0.3-0.2l-0.5-0.5l-0.3-0.3l-0.6-0.4
	l-0.5-0.2l-0.5,0l-0.3,0l-0.7,0.1l-2.3,1l-0.3,0.3l-0.2,0.4l0,0.6l-0.1,1.5l-0.9,1.4l-0.3,0.4l-0.7,0.7l-0.2,0.3l-0.3,0.2l-1.4-0.2
	l-0.4-0.4l-1.3,0.3l-2.9,1.3l-0.4,0.2l-4.2,2.5l-0.4,0l-2,0.3l-1.6,0.3l-0.4,3.1l0.2,0.6l0.2,0.3l0,1.6l-1,2.9l-0.2,0.4l-0.3,0.3
	l-0.2,0.5l-0.1,0.6l-0.5,3.7l0,0.7l0,0.5l0.1,0.7l0.2,0.6l0.2,0.7l0.1,0.6l0.1,0.8l-0.1,0.7l-0.5,2.8l-0.3,0.6l-0.6,0.8l-2.4,1.1
	l-0.6,0.2l-2.2-1.1l-0.4-0.1l-0.6-0.1l-0.6,0h-0.3l-0.5-0.1l-0.8-0.3l-2-1.5l-1.1-0.3l-1.5-0.5l-0.8-0.5l-2.2-2.3l-0.8-1.2l-0.6-1
	l-0.3-0.6l-0.4-1.1l0.4-1.8l1.8-1.6l2.2,0.3l0.4,1l0.1,0.5l-0.1,0.8l-0.2,0.5l-0.8,0.6l-0.9,0.5l0.5,0.2l1.1-0.3l0.4-0.3l0.8-0.6
	l0.1-0.5l-0.1-0.7l-0.1-0.9l0-0.5l0.1-0.7l0.3-0.4h1.6l0.4,0.5l0.7,4l-0.2,0.5l-0.3,0.3l-0.4,0.3l-1.2,0.7l-0.4,0.2l-0.5,0.3l0,0.6
	l0.1,0.1l0.6-0.4l1.5-0.6l0.4-0.3l0.5-1.1L331,605l-0.2-1l0.1-1.3l0.4-1.5l3.4-1.8l0.4,0l0.3,0l0.4-0.1l0.3-0.2l0.3-0.2l0.2-0.3
	l2.6-4.5l0.1-0.5l-0.6-1.1l-1.1-0.3l-1.2-0.1l-3.3,1.8l-2.7,1.8l-1.1,0.9L329,597l-1.4,2.1l-0.7,0.2l-0.4,0l-0.5-0.3l-0.3-0.4
	l-0.3-0.5l-0.2-0.4l-0.3-0.3l-1.1-0.4l-2.8,0.7l-0.4,0.4l1-0.1l1.3,0l2,1.7l0.3,0.6l-0.2,0.4l-1.8,0.6l-0.4-0.1l-0.5-0.4l-0.9-0.3
	l-0.6,0.3l0.3,0.6l0.5,0.2l0.3,0l0.4,0.2l-1.3,2.5l-0.4,0.2l-0.7-0.2l-0.4-0.5l-0.2-0.3l0.1,0.8l1.1,1.3l0.4-0.3l0.4-0.1l1.3,2
	l0.2,0.5l-0.2,0.4l-1.2,0.2l-0.1,0l-0.4-0.4l-2.5-2.1l-1.7-1l-1-0.7l-0.3-0.4l-1.4-1.1l-0.3-0.1l-0.4,0l-0.3-0.1l-0.9-0.8l-1.1-1.6
	l2.9,0.2l1-0.2l0.7,0.1l1.2,1l0.9,1.5l0.3,0.3l0.6-0.1l0.2-1.1l-0.7-0.7l-0.5-0.6l0.4-0.9l0.6,0.1h0.7l-0.6-0.4l-0.9-0.2l-0.4,0.1
	l-0.3,0.4l-0.3,0.1l-1.1-1l0.3-0.4l0.2-0.2l0.3-1l-0.5-0.7l-0.4-1.3l-0.1-1.7l0.5-0.7l2.5-1.7l1.8,1.1l1.5,0.5l0.6-0.2l1.5-1.3
	l1.5-1.8l0.2-0.4l2.1-0.3l1.5,1l0.6,0.1l0.7,0l0.9,0l0.5-0.1l0.4-0.1l0.4-0.1l1.8-0.9l-0.6-1.3l-0.3-0.3l-0.5,0l-0.3,0.1l-0.4,0
	l-1.7-0.3l-1.9-0.4l-2.8-0.3l-1.9,0.1l-0.5,0.1l-0.4,0.5l-0.3,0.8l-0.7,1.5l-1.6-1.4l0.6-0.9l0.4-0.3l0.4,0l0.6-0.3l-0.3-0.4
	l-1.4,0.5l-0.3,0.2l-1.1,0.1l-2.1,0l-1.4,1.8l0.2,0.3l0.9-0.6l1.7,0.6l0,0.5l-1,1.4l-0.6,0.6l-0.9,0.8l-0.8,0.2l-0.3,0.1l-0.4,0.5
	l-0.3,0.6l0.4,1.3l0.3,1.4l0,0.9l-0.4,0.8l-1.4,0.5l-0.1,0.1l-0.4,0.2l-1,0.1l-1.5-0.6l-1.7-1.6l1.8-1.4l1-1.1l-1.6-0.2l-2.6-1.6
	l0.7-0.5l1.2,0.1l0.3,0.4l2-0.2l-0.3-0.7l0-0.8l2-4.5l0.5-0.3l1.1,0.2l0.7,0.2l0.4,0.1l-0.4-0.5l-1.2-0.3l-0.4-0.1l-0.4,0l-1,0.2
	l-0.3,0.4l0.2,1.1l-0.1,0.4l-1.2,1.9l-0.5,0l-0.3-0.2l-0.1-0.4l0-0.9l-0.4-0.2l-0.3,0.1l-1.5,1.3l-0.7,0.8l-0.5,0.8l-0.2,0.4
	l-1.1-0.5l0.1-2.6l0.7-0.9l0.5-0.2l0.3,0.2l0.2-0.4l-0.6-0.2l-0.2-0.4l-0.7-1.9l0-0.6l0.2-0.4l0.4,0.1l0.4,0.1l0.3-1.1l-0.2-2
	l-0.8-1.4l-1-1.5l-0.2-0.6l0.1-0.7l0.4-0.3l0.3,0.4l0.2,0.8l1.5,2.4l0.4,0.1l0.6-0.5l1.5,1l0.3,0.1l0.8-0.2l0.3-0.2l0.3-0.9l0.7-1
	l0.9-0.5l0.9-0.5l0.5,0.1l0,1.5l0,1l1,1.3l0.6,0.3l0.4-0.5l0.8-2.9l-0.1-0.8l-0.4,0.4l-0.4,1.1l0,0.5l-0.4,0.9l-0.9-0.6l0-1.8
	l1.1-2.7l0.8-0.4l1.4,1l-0.1,1.2l0.5,0.9l0.5,0.3l0.2,0.2l0.6,1.2l0.3,0.6l-0.5,2.5l-0.4,0.5l-1.7,0.7l-2.4,1.5l0.4,0.1l1-0.4l2.4-1
	l0.7-0.5l1.2-1.2l0.3-2.4l-0.2-0.5l-0.9-1.1l-1.3-1.7l-0.2-1.8l0.4-0.4l1.5,0.2l0.3-0.2l0.3-0.3l0.2-0.3l-0.2-2.7l-0.5-1.3l-2-2.3
	l-0.7-0.7l-0.3-0.2l-0.6-0.1l-0.6,0l-1.1-0.5l-1.8-1.2l-0.3-0.5l-0.5-0.4l-0.6,0.1l-1.1,0.3l-0.4,0.4l0.2,0.4l0.5,0.2l0.3-0.1
	l0.5-0.4l1.1,0.3l1.1,0.6l1.6,1.4l1.8,1.9l0.3,0.1l1.5,0.4l0.3,0.4l-0.2,1l-0.8,0.9l-1.2,0.1l-0.9-0.6l-0.3-0.7l-2.1-1l-2.6-1.9
	l-0.8-0.5l-0.5,0.1l0.7,2l0.4,0.3l0.5,0.1l0.4,0l0.5-0.2l0.5,0.3l0.3,0.4l0.4,0.7l-0.8,1.3l-0.3,0.2l-0.5,0.1l-0.9,0.3l1.6-0.2
	l0.8-0.7l0.5-0.3l0.4,0.3l0.1,0.6l-0.4,0.5l-0.9,0.4l-0.8,0.4l-0.7,0.4l-0.2,0.5L312.6,577.2L312.6,577.2z M371.3,635.5l0,2.2
	l-0.1,0.1l-0.1,0l-0.2,0l-0.2-0.1l-0.3-0.3l-0.5-0.5l-0.3-0.2l-1.7-0.8l0.5,0.9l0.1,0.2l0.2,0.2l0.3,0.2l0.5,0.2l0.1,0.4l-0.3,0.4
	l-0.4,0.2l-2,0.4l-1.4,0.2l-0.3,0l-0.3-0.1l-4.8-1.8l-0.9-0.4l-1.4-0.7l-0.1-0.5l0.1-0.2l0.4-0.4l0.1-0.2l-0.1-1.4l-0.1,0l-1,0.7
	l-0.1,1.3l-0.2,0.5l-4.5,1L351,637l-0.4,0l-0.4-0.1l-0.3-0.2l-0.2-0.4l0-0.7l0.2-0.3l0.3-0.3l0.7-1.2l0.1-0.3l-0.2-0.1l-1.1,1.4
	l-0.3,0.8l-0.1,0.4l0,0.2l-0.4,0.1l-0.5-0.1l-2.5-0.2l-1.4,0.7l-0.2,0l-0.2,0l-0.5-0.1l-0.3-0.2l-0.2-0.3l0.6-0.8l0.2-0.2l0.2-0.1
	l0.5-0.1l0.4-0.1l0.8-0.5l1.1-0.7l0.2-0.2l0.8-1.1l0.1-0.3l-0.1-0.1l-0.3,0l-0.8,0l-0.2,0.1l-0.9,1l0.2,0.2l0.3,0.2l-0.1,0.2
	l-0.6,0.4l-1.2,0.4l-0.9,0.2l-1.3-0.1l-0.3-0.7l0.2-0.1l0.6,0l1-0.3l0.1-0.2l-0.1-0.2l-0.2,0l-0.1,0l-0.8,0.2l-0.8,0.7l-1,1.3
	l-0.3,0.1l-0.1-0.2l0-0.3l0.1-0.3l0.1-0.2l0.2-0.3l0.1-0.2l0.1-0.2l0.3-1.4l0-0.5l-0.6-0.1l-0.3,0.3l0,0.3l-0.1,0.2l-0.2,0.3
	l-1.4,0.8l-0.2,0.1l-1.2-0.5l-0.3-0.1l-0.1-0.2l0-0.2l0.2-0.1l0.2,0l0.2-0.7l-0.1-0.8l-0.9-1.2l-0.2,0l-0.6,0.7l-1,2.5l-0.1,0.5
	l-0.1,0l-0.2-0.1l-2.1-1.6l-0.2-0.2l-0.4,0l-0.4,0.1l-0.5,0.5l-0.3,0.4l-0.2,0.1l-1.2,0.1l-0.1,0l-0.3-0.1l-0.2-0.2l-0.1-0.4
	l-0.3-1.3l-0.1-1.3l0.1-1l0.2-0.2l0.2,0l0.7,0.3l0.6,0.7l0.2,0.5l0,0.2l0.2,0.3l0.2,0.1l1,0.4l0.8,0.3l0.2,0l1.2-0.6l-1.5-1.7
	l-0.3-0.2l-0.2,0l-0.4,0.2l-0.2,0l-0.6-0.4l-0.2-0.2l-0.1-0.7l0.7-0.4l0.3,0l0.3,0l0.1,0l0.2,0.2l0.1,0.6l0.9,1.3l0.2,0.2l0.2,0.1
	l0.5,0.1l0.9-0.4l0.1-0.2l-0.2-0.2l-0.8-0.1l-0.2-0.1l-0.1-0.2l-0.2-0.4l-0.1-0.5l0.2-0.3l0.2,0l1.8,0.8l0.9-0.4l-0.6-0.4l0.2-0.3
	l0.5-0.4l0.2,0l2.1,1.3l2.8,0.9l0.4-1.2l0-0.3l0-0.3l0-0.3l-0.1-0.6l0.1-0.3l0.5-0.3l0.5-0.2l0.6,0l0.4,0l1.4,0.1l0.1,0l0.5,0.2
	l0.1,0.2l-0.8,1.2l-0.5,1.2l-0.3,1.3l-0.3,1.8l0.4-0.5l1,0.9l-0.6-1.1l-0.1-0.2l-0.1-0.5l0.1-0.4l0.4-1.3l0.1-0.2l0.3-0.4l0.2-0.2
	l0.5-0.5l0.2,0l0.2,0.4l0.2,0.3l1.4,1.2l0.4,0.2l0.2,0.1l0.1,0.1l0.7,0.6l0.1,0.2l0.1,0.2l0.1,0.3l0.2,0.3l0.3,0.1l0.3,0l1.4-0.6
	l-1.2-0.9l-0.3-0.2l-0.5-0.3l-0.3-0.1l-0.6-0.3l-0.2-0.1l-0.3-0.2l-0.5-0.4l-0.2-0.2l-0.6-1.1l0.1-0.4l0-0.3L347,625l-0.2-0.2
	l-0.2-0.2l-0.3-0.2l-0.8-0.3l-0.3,0l-0.6-0.1l-1.1,0.1l-0.5,0l-0.2-0.1l-0.2-0.1l-0.2-0.2l-0.2-0.3l-0.5-2.1l0.5-0.2l0.3,0.3l1,0.7
	l1.7,0.9l3.9,2.2l2.4,2.3l0.2,0.1l0.9-1l0-0.2l-0.2-0.2l-0.9-0.2l-0.2-0.1l-0.3-0.3l-0.1-0.3l0-0.2l0.8-0.8l0.5-0.4l0.2-0.2l0.2,0
	l0.1,0l0.6,0.4l0.4,0.6l1.3,2.9l0.9,2.4l0.3,0.4l0.2-0.1l0.2-1.6l-0.9-2.1l-0.5-1.1l-0.2-0.2l-0.3-0.3l0.2-0.6l0.1-0.1l0.3,0
	l0.5,0.1l1.5,0.8l0.3,0.3l0.3,0.5l3.2,0.8l1.7,1l0.2,0.1l0.1,0.2l0.1,0.3l0,0.2l-1,1.2l-0.1,0.1l-0.5,0.3l-0.2,0.2l-0.5,1.1
	l-0.2,0.4l0.4,1.2l0.1,0.1l0.1-0.8l0.5-1.2l0.3-0.7l0.1-0.3l0.2-0.2l0.4-0.3l0.3-0.1l0.2,0.1l0.1,0.2l0.2,0.4l0.2,0.6l0.1-0.1
	l0.3-0.5l-0.2-0.8l-0.1-0.3l0-0.5l0.1-0.3l0.2-0.4l0.1-0.1l0.6,0l0.1,0l0.4,0.2l0.5,0.4l0.2,0l0.2-0.2l0-0.8l-0.2-0.2l-0.2-0.1
	l-0.8-0.5l-2.4-1.4l-1.8-0.8l-0.3-0.1l-1.1-0.5l-0.2-0.1l-0.2-0.2l-0.3-0.4l-1.4-0.6l-0.4-0.1l-0.3,0l-0.3,0l-0.3,0l-0.3-0.1
	l-1.1-0.5l-2.1-1.5l-0.2-0.2l-0.1-0.3l-1-3.4l-0.4-1.9l-0.1-0.5l0-0.4l0-0.4l0.3-0.5l0.2-0.2l2.9-1.9l0.2,0l0.4,0.1l0.3,0l0.2,0
	l0.3,0l0.7-0.2l5.2-2.9l0.2-0.1l0.2-0.3l0.1-0.4v-0.2l-0.2-2.2l-0.1-0.3l-0.2-0.2l-2.5-0.2l-0.4,0l-3.7,0.6l-0.1,0l-0.5,0.2
	l-0.5,0.3l-0.5,0.4l-0.2,0.2l-0.3,0.5l-0.2,0.2l-1.7,0.8l-0.2,0l-0.1,0l-0.2-0.1l-0.3-0.2l-2.4-2l-0.1-0.2l-0.4-1.7l-0.1-1.1l0-0.3
	l0.4-3.9l0.1-0.3l0.1-0.2l0.2-0.3l1-1.2l0.2,0.2l-0.2,0.5l0,0.3l0.3,1l0.2,0.1l1.5-0.5l0.2-0.1l0.3-0.2l0.2-0.1l0.1-0.2l0.1-0.2
	l0.1-0.2l0.3-1.2l0-0.3l0-0.3l-0.1-0.2l-1.3-0.2l-0.6-1l0-0.3l-0.1-0.3l-0.2-0.3l-0.3-0.1l-0.4-0.1h-0.1l-0.3,0l-0.4,0.1l-0.2,0
	l-0.1-0.2l0.3-0.4l0.4-0.2l2.4-0.4l0.2,0l0.3,0.1l0.3,0.2l0.1,0.1l0.2,0.3l0.2,0.5l0.4,0.7l0.2,0.2l0.3,0.3l0.3,0.1l0.3,0l0.3,0
	l0.3-0.1l2.2-1.3l0.3-0.2l0.2-0.3l1.2-2l0.1-0.4l0-0.3l-0.1-1.7l0.3-0.3l0.3-0.2l1.5-0.8l0.5-0.1l0.7,0.9l0.1,0.2l0.1,0.2l0.1,0.2
	l0,0.3l0.1,0.3l1.4,2l0.1,0.1l0.4,0.3l0.3,0.2l0.4,0.1l0.2,0l0.4-0.2l1.5-0.7l1.7-1.1l0.2-0.1l0.2-0.3l1.5,0.6l1,0.8l0,0.2l0,3.1
	l0,10.3l0,1.3l0,3.7l0,7.2l0,3.4l0,7.4l0,0.5l0,4.2L371.3,635.5L371.3,635.5z M292.3,535.5l-0.2,0l-1-0.5l-0.3-0.3l0.4-0.7l0.4-0.4
	l0.8-0.5l0.3-0.1l0.3,0.2l0.4,0.3l-0.6-0.8l-0.3-0.1l-0.4,0.2l-1.1,0.9l-0.4,0.1l-0.3-0.6l0.1-0.9l0.3-1.9l-0.5-2l0.5-3l0.5-0.6
	l0.8-0.6l1.7-2.3l-0.5,0.2l-0.8,1.1l-1.4,1.7l-1,0.7l-0.2-0.4l-0.1-0.8l-0.5,0.6l0,0.5l0,1l0,0.8l0.2,0.5l0.3,0.5l-0.3,2.6l-0.4,1.8
	l-0.4-0.1l-1.2-0.9l-0.9-1.9l-1-2.4l0.3-1.2l-0.3-1.4l-0.4-0.8l-0.5-0.6l-0.4,0.2l-0.4,0.2l-0.3-1.1l-0.1-0.6l0-1.1l0.5-0.6l0.3-0.1
	l0.3,0.1l0.7,1.2l0.2,0.5l0.5,1l1,1.3l0.4,0.3l0.1,0l0-0.2l-0.5-0.9l-0.5-0.6l-0.2-0.3l-0.3-0.4l-0.6-1.3l0-0.9l0.6-0.2l0.3,0.3
	l0.7,1.2l0.4,0.1l1.1-1.5l0.1-0.4l-0.3-0.8l0.4,0.3l1,1.3l0.8,1l0.4-0.9l0.8-3.8l-0.8-1l-0.5-0.5l-0.3-0.2l-0.3-0.4l-0.7-1.6
	l-0.5-1.3l0.2-0.9l0.9-0.7l1.8-1.2l1.3-0.3l2.6,0.6l0.2,0.8l0.3,2.9l0.3,0.9l0.1,0.4l-0.1,2.5l0.4,2.1l0.1,0.4l0,1.7l-0.3,2.4
	l-0.2,0.9l-0.3,0.5l-0.1,0.8l0.3,0.9l-0.6,0.7l-0.6,1.4l0,0.6l0.9-0.9l-0.1-0.4l0-0.4l0.8-0.2l0.3,0.4l0.3,0.6l0.1,1.3l-0.7,3.9
	l-0.2,0.3l-0.8,1l-1.1,1l-0.4,0.1L292.3,535.5L292.3,535.5z M372.2,647.3l-0.3,0l-0.3-0.1l-0.3-0.4l-0.2-0.6l-0.3-0.3l-0.4,0
	l-0.5,0.4l1.8,1.9l0.7-0.2l0.4-0.2l0.3-0.1l0.4-0.1l0.6,0.1l0.9,0.4l2.3,1.1l0.2,0.5l-0.1,0.6l-0.2,0.5l0.5,0.2l0.8-0.1l-0.5,1.2
	l0.8,1.3l0.4,0.2l0.6,0.1l-0.2,1.8l-1,0.9l-0.2,0.1l-0.1,0l-0.4-0.1l-0.2-0.3l-0.4-0.7l-1-1.2l-0.5-1.1l0.2-0.8l-1.4-1.2l-0.3-0.1
	l-0.4,0.5l-0.7,0.1l-0.9-0.8l-0.9-0.1l-1.6,0l-0.5,0.6l-0.7,0.3l-0.3,0l-0.6-0.4l-0.6-0.7l-0.4-0.7l0.4-0.6l0.9-0.3l0.3-0.1l0.3,0.1
	l0.4-0.1l0.2-1.1l-1.7,0.6l-0.2-0.4l0.2-1.3l0.4-1.1l0.5-0.6l0.1-0.4l-2,1.6l-0.8,0.2l-1.5-0.5l-0.3-0.2l-0.4-0.3l-0.3-0.5l-0.4-1.5
	l-1.7,0.3l-0.3,0.1l-0.3,0.2l0.8-0.1l0.9,0.1l0.4,1.4l-1.4,0.5l-0.2,0.9l1.1,1.7l0,1.4l1.1,0.3l0.9,0.1l-0.1,1.3l-0.2,0.2l-2-0.5
	l-1.3,0.3l-0.8-2l0.3-0.8l0.7-0.2l0.2-0.2l-0.9-0.5l-0.4,0l-1,0.9l-0.5-1l-1.2-0.5l0.1-0.7l0.4-0.8l1-0.8l0.4-0.1l0.4-0.2l0.3-0.4
	h-0.5l-0.6,0.4l-1.2,0.9l-1.9,0.6l-0.3,0l-0.8-0.8l0.7-0.1l0.3-0.2l-0.8-0.9l-1.4-0.1l-0.2-0.2l0.3-0.6l1-1.2l0.5-0.2l1.3-0.3
	l1.9-0.2l3.6-0.7l2.2-0.6l2.6-0.2l2.1,0.1l0.3-0.1l0.9-0.7l1-0.2l1.9-0.2l1.4,0.5l0.8,1.1l0.2,0.9l-0.2,0.6l-3,1.4l-0.2,0.3
	l-0.8,0.2l-1.6-0.4l-0.7-0.4l-0.5-0.5l-0.4-0.4l-0.3-0.2l-1.5-1h-0.3l-0.2,0.5l1.2,1.4l0.9,0.6l1.5,0.9l2.3,0.1l1.9,0l0.9,0.1
	l1.3,0.9l0.9,1l-0.1,0.4l-3.8,0.6L372.2,647.3L372.2,647.3z M311,614.3l0.6-0.4l0.1-2.1l-1.7,0.1l-0.6,0.4l-0.5,0.2l-0.4,0.1l-1.1,0
	l0.6-0.5l0.4-0.2l0.2-0.3l-0.1-0.9l-0.4,0l-0.5,0.1l-0.4-0.1l-0.3-0.3l0-0.9l0.2-0.4l0.2-0.2l0.6-0.1l0.3,0.3l0.3,0l0.3-0.2l0.4-0.4
	l0.3,0l1,0.5l0.2,0.3l0.2,0.4l0.3,0.6l0.4,0.2l1.1,0.4l0.4,0l1.2,0l1.2-0.2l0-0.6l-0.4,0l-0.3,0.3l-0.9,0.1l-0.9-0.1l-0.4-0.1
	l-0.9-0.2l-0.4-0.3l-1.6-2.6l-0.3-0.8l0.6-0.1l0.5,0.2l0.7,0.4l2.4,0.5l-0.3-1.1l-0.6-0.8l1.3-0.4l1,0.1l1.1,0.5l0.5,2.4l-0.2,1
	l-0.2,0.8l0.4,1.2l0.8-2.3l0.1-0.7l-0.4-0.8l-0.3-0.8l0.9,0.3l0.7,0.8l0.8,1.8l1.1-0.9l1.3,0.2l0.6,0.4l0.5,0.9l-0.1,0.6l-0.4,0
	l-0.4,0.1l-0.2,0.4l0.5,1.5l0.4-0.6l0.5-0.6l1.4,0.6l0.3,0.2l1.2,1.6l-0.5,0.3l-0.2,0.1l-0.2,0.9l-0.4,0.3l-0.3,0l-1-0.2l-0.8,0.7
	l0,1.6l0.2,0.2l0.5,0.2l0.4,0.1l-0.1,1l-1.3,0.1l-1.4,1.2h-0.3l-0.3-0.1l-0.5-0.7l-1.1,0.6l-1.5,1l-0.7,0l-1.6-0.8l-0.4-0.4l0.3-0.4
	l1.5,0l1.5-1l0.6-3.8l-1-0.5l-0.4,0.2l-0.8,0.7l-0.4,0.2l-1.1-0.1l-0.1-0.5l0-0.6l-0.5-0.2l-0.5,2.3l0,0.5l-0.4,1.5l-1.2-0.5
	l-0.5-1.1l-0.4-1.2l-0.3-0.9L311,614.3L311,614.3z M378.7,638.1l1.2,0l1.3,0.2l1.1,0.1l1.8,0.1l0.8-0.1l0.3,0l1.6,0l0.6,0.1l0.9,0.2
	l0.5,0.1l0.4,0.2l0.3,0.2l0.5,0.3l0.2,0.2l1.4,2.2l0,1.4l-0.3,1l-0.2,0.4l-0.1,0.2l-1.7,2.3l-0.1,0.1l-0.6,0.1h-0.2l-1.3-0.4
	l-0.2-0.1l-0.3-0.2l-0.2-0.2l-0.1-0.2l0-0.4l0.3-0.3l0.1-0.2l0-0.2l-0.1-0.2l-0.3-0.3l-0.3-0.2l-0.3-0.1l-0.4-0.1l-0.3,0l-0.2,0.1
	l-0.4,0.2l-0.2,0.2l-0.1,0.2l-0.1,0.3l-0.1,0.6l0,0.6l-0.1,0.2l-0.2,0l-1.9-0.1l-0.2-0.1l-0.7-0.4l0.2-0.2h0.2l0-0.4l-0.4-0.7
	l-0.2,0.1l-1.7,0.9l-0.4,0.3l-0.1,0l-0.3,0l-0.2-0.1l-0.2-0.1l-0.2-0.2l-0.1-0.2l-0.5-2.4l0.1-0.4l-0.3-2.1l-0.3,0.1l-1.2,0.1
	l-0.4-0.5l-0.2-0.8l0.2-0.3l0.1-0.1l1.7-0.3L378.7,638.1L378.7,638.1z M310.3,602.2l0.9-0.2l0.2,0.1l0.9,0.6l1.5,1l0.1,0.2l-0.1,0.3
	l-0.2,0.1l-0.1,0l-1.5-0.1l-3.2-0.9l-0.1-0.6l-0.1-0.3l-0.9-0.4l-0.4-0.8l-1.5-1.4l-0.2,0.1l-1.3-1.2l-0.8-1l-1.1,0.2l-0.5,0.3
	l-0.6,0.4l-3-0.1l-0.3-0.2l-0.3-1.3l-1-1.2l-0.3,0l-0.8-0.2l-1-0.8l-0.1-0.2l0.1-0.4l0.2-1l-0.4-0.6l-0.1-0.1l-0.3-0.1l-0.6-0.3
	l-0.2-0.1l-0.7-0.9l0.5-0.8l0.2,0l0.6,0.4l1.9,1.8l0.7,0.9l0.5,1.2l0.6,0.6l1.4,0.3l0.2-0.3l0.5-0.1l0.9-0.2l1.4,0.5l1.7,1l0.8,0.7
	l0.5,0.3l1,0.5l0.8,0l0-0.4l0.6,0.2l0.5,0.7l0.1,0.2l0.2,0.9l-0.1,0.3l-0.2,0.3l-0.1,0.3l0.5,1.3l0.1,0.2l0.2,0.1l0.5-0.9l-0.1-0.4
	l-0.1-0.5l-0.1-0.7l0.2-0.2l0.2,0l0.2,0.1l0.4,0.2l1.4,1.8l0.1,0.2L310.3,602.2L310.3,602.2z M337.2,618.3l0.3,1.4l1,0.2l1.2-0.5
	l0.9,0.6l0.1,0.3l0.2,1.7l0.1,2l-1.6,2.4l-0.2,0.1l-0.2,0l-0.2-0.2l-0.5-0.6l-0.7-0.2l-1.2-0.6l-1.2-2.3l-0.1-0.4l0.1-0.4l0.2-0.1
	l0.4,0l0.2-0.1l0.1-0.2l-0.5-0.8l-1.1,0.9l-0.5,1.5l-0.1,0.2l0,0.5l-1.3-0.3l-0.2-0.2l-0.3-0.7l-0.1-0.5l-0.1-0.4l0.1-0.3l0.8-0.9
	l-0.3-2.5l0.2-0.5l0.3-0.3l0.2-0.2l0.5-0.1l1.3,0l1.2,0.5l1,0.5l0.1,0.1L337.2,618.3L337.2,618.3z M347,623.1l-0.1,0l-1.1-0.4
	l-0.5-0.2l-0.5-0.3l-0.2-0.1l-1.2-1.1l-0.2-0.3l-0.8-1.4l-0.2-2.2l0-0.3l0-1.2l0.1-0.2l0.7-0.5l0.6-0.2l0.2,0l1.1,0.4l0.3,0.3
	l0.2,0.1l0.1,0l0.2-0.1l0.2-0.3l0-0.3l-0.1-0.3l-0.2-0.3l-0.2-0.1l-0.6-0.3l-0.1-0.2l-0.1-0.3l-0.1-1.4l0.1-0.3l0.4-0.1l0.2-0.1
	l0.2-0.1l0.2-0.2l0.3-0.3l0.2-0.3l0.1-0.2l0.1-0.4l0.1-0.4l0.1-0.3l0.1-0.2l0.2-0.2l0.6-0.1l0.2,0.2l-0.1,1.6l-0.1,0.2l-0.1,0.2
	l0,0.3l0,0.4l0,0.3l0,0.3l0.6,3l0.7,1.9l0.5,1.3l0,0.3l-0.3,0.3l-0.3,0.1l-0.5,0l-0.1,0l-0.2-0.1l-0.2-0.1l-0.4-0.3l-0.4-0.4
	l-0.3-0.6l-0.2-0.2l-1.2-1.2l-0.1,0.2v0.3l0.2,0.7l0.1,0.2l0.1,0.2l0.3,0.3l0.2,0.2l0.1,0.2l0.3,0.4l0.6,1.8l0.1,0.4l0.2,1.7
	L347,623.1L347,623.1z M332.2,616.8l-0.6,0.7l0.1,0.2l0.3,0.3l0.5,1.8l0,0.4l-0.8,1.1l-0.2,0.3l-0.2,0l-0.1,0l-0.5-0.1l-0.2-0.1
	l-0.2-0.1L330,621l-1.1-1.7l0-0.3l0.1-0.5l-0.1-0.2l-0.2,0l-0.1,0.3l0,0.3l0.1,0.3l0.4,1.5l0.5,0.6l0.2,0.1l0.3,0.2l1.3,1.6l0,0.3
	l-0.1,0.3l-1,1.7l-0.1,0.1l-0.2,0l-1.1-0.3l-0.2-0.5l0.2-1.2l-2-2.1l-1.2-1.3l-0.2-0.2l-0.1-0.2l-0.1-0.2l-0.4-2.3l-0.1-0.5l0.1-0.4
	l0.5-0.1l0.1,0l0.1,0l0.8,0.3l0.2,0.2l0.2,0.4l0.5,0l0.7-1.6l0.2-0.6l0.3-0.2l0.3-0.1l2.8,1.1l0.9,0.5l-0.1,0.4L332.2,616.8
	L332.2,616.8z M288.5,540.4l-0.3,0.4l-1.6,2.1l-0.2,0.2l-0.3,0.1l-0.9-0.1l-0.1-0.1l-0.1-0.2v-0.3l0.1-0.3l0.5-0.3l0.4-0.5l0.6-0.8
	l-0.2-0.2l-0.9,0.2l-0.6,0.4l-1.3,0.6h-0.2l-0.1-0.1l0-0.3l0.2-1.4l0.3-1.1l0.3-1l0.1-0.3l0.2-0.2l0.2-0.1l0.2,0l0.2,0.1l0.9,0.4
	l0.1,0.2l-0.1,0.2l-0.1,0.1l-0.4,0.1h-0.5l-0.1,0.2l0.2,0.4l0.2,0.2l0.5,0.3l1,0.3l0.7-0.1l0-1l-0.1-0.6l-0.9-0.3l-1-0.6l-1-0.9
	l-0.2-0.7l1.1-0.8l0.2,0l2,0.5l0.2,0.1l1.7,2.1l-0.6,0.6l-0.2,0.2l-0.1,0.2l0.6,0l2.1-0.5l0.2-0.5l-0.1-0.2l0.5-0.2l0.2,0.2l0.1,0.4
	l0,0.7l-0.2,0.6l-2.5,1.5l-0.2,0.1L288.5,540.4L288.5,540.4z M292.8,556.9l-2.1-1l-1-1.8l-0.1-0.2v-0.3l0.1-0.3l0.3-0.9l0.2-0.1
	l0.7,0.1l1.5,0.4l0.7,0.3l1-0.5l0.1-1.6l0-0.4l-0.1-0.3l-0.3-0.4l-0.2-0.1l-0.2-0.1l-0.1-0.2l0.1-0.2l0.3-0.2l0.5,0.1l0.9,0.4
	l0.8,0.5l1,1l0.1,0.3l0.1,0.3l0.3,3.3l-0.3,1.2l-0.1,0.2l-0.2-0.1l-0.1-0.4l-0.2-0.7l-0.4-0.6l-0.2-0.1l-0.1,0l-1.5,0.9l-0.3,0.9
	l-0.1,0.2L292.8,556.9L292.8,556.9L292.8,556.9z M349.2,637.9l0.4,0l0.1,0.1l-1.7,0.8l-0.6,0.1l-0.3,0.2l0,0.4l0,0.4l-0.1,0.2
	l-1.4,0.2l-0.4,0l-0.3-0.1l-0.3-0.2l-0.2,0.1l-0.2,0.4l1,0.4l2.1,0.3l1.7-0.3l0.2,0l0.7,0l0.1,0.1l0.1,0.4l0.2,1.4l-0.4,0.4l-0.3,0
	l-0.2-0.1l-0.2-0.1l-0.1-0.3l-0.3-0.4l-0.3-0.1l-0.1-0.1l-0.4,0.4l0,0.5l0.1,0.2l0.3,0.2l0.3,0l0.1,0.1l0.1,0.2l-0.1,0.3l-1.9,0.9
	l-0.2,0l-0.1-0.2l-0.1-0.3l0-0.4v-0.6l0.2-0.5l-0.7-0.9l-1.2,1l-0.3-0.1l-2.8-1.1l-0.9-0.8l-0.1-1.8l0.2-0.2l0.2-0.1l1.4-0.3
	l1.1,0.2l0.5,0.2l0.6,0.3l1.6,0.1l0.2-0.1l-0.7-0.3l0.1-0.2l1.3-0.8l0.2-0.1l0.8,0L349.2,637.9L349.2,637.9z M299.4,551.6l-0.3-0.9
	l-0.2-0.2l-0.3-0.2l-0.6,0.3l-0.1,0.2l-1.1-0.4l-1.3-1l-0.1-0.2l-0.6-1.4l-0.1-0.3l-0.1-0.4l0.1-0.2l1-0.9l0.9-0.9l-1-0.4l-0.1,0
	l-0.5,0.2h-0.2l-1.4-0.7l0.8-0.7l0.2-0.1l0.4-0.3l0.2-0.1l0.2,0l2.2,1.4l1.2,2.6l0.5,1.1l0.7,1.9l0.1,0.4l0,0.5l-0.2,0.7l-0.1,0.1
	L299.4,551.6L299.4,551.6z M354.9,641.2l0.1-0.6l0-0.3l-0.2-0.5l-0.4-0.1l-0.1-0.3l0.3-1.4l0.1-0.1l0.8-0.3l0.1,0l1.4-0.2l0.7,0
	l3.6,0.8l0.4,0.1l2.2,0.7l0.5,0.5l-0.2,0.2l-0.4,0l-2.4,0.6l-1.3,0.4l-1.9,0.3l-1.4,0.2L354.9,641.2L354.9,641.2z M303.2,590.6
	l-0.1,0l-0.2-0.1l-1.7-2l-0.1-0.2l0-0.2l0.3-0.8l0.1-0.2l0.7-0.9l2.1-2l0.8-0.5l0.2,0l0.2,0.1l0.2,0.1l0.1,0.2l0.6,1.2l-0.7,2.6
	l-0.7,1.6l-0.1,0.2l-0.2,0.3l-0.2,0.1l-0.2-0.1l-0.1,0l-0.4,0.3L303.2,590.6L303.2,590.6z M289.4,564.4l-0.1,0l-0.3-0.2l0.1-0.5
	l0.9-0.7l0.7-0.3l0.3-0.1l1-1.1l0.1-0.3l-0.1,0l-1.4,0.8l-0.3,0.2l-0.3-0.1l-0.1-0.2l-0.1-0.3l0-0.2l0.1-0.2l2.1-2.2l1-0.3l1.3-0.1
	l0.6,0.7l0.1,0.2l0.3,0.9l-0.1,1.7l-0.2,0.3l-0.5,0.6l-0.1,0.1H294l-0.2-0.1l-0.5-1.5l-0.5,0.3l-0.3,0.6l-0.6,1.2l-0.2,0.1l-0.6,0.1
	l-0.5,0l-0.7,0.1l-0.2,0.1L289.4,564.4L289.4,564.4z M285,550.3l-1.3-0.3l-0.3-0.1l-0.1-0.2l-0.8-2.1l0.1-0.3l0.6-0.6l0.4-0.3l0.2,0
	l0.2,0l0.3,0.2l0.1-0.6l-0.4-1l-0.4-0.3l-0.4-0.3l0-0.3l0.6-0.6l0.3,0l2.6,0.6l1.1,0.1l0.1,0.1l-0.1,0.3l-1.3,1.7l-0.2,0.1l-0.1,0
	l-0.2-0.1l-0.2-0.1l-0.2-0.2l0,0.6l0.1,1.3l0.1,1.5l-0.2,0.6l-0.2,0.2l-0.2,0.1L285,550.3L285,550.3z M286.9,532.4l-0.2-0.4
	l-0.7-0.9l-0.3-0.1l0.1,0.6l0.1,0.4l0,0.2l-0.2,0.1l-0.3-0.1l-0.4-0.4l-0.2-0.3l-0.3-0.7l0-0.2l0.1-0.2l-0.7-0.6l-1.4,1.4L282,531
	l-0.4-0.8l-0.1-0.2l-0.1-2.4l0.5-0.7l2.3-0.2l0.2,0l0.2,0.1l0.2,0.2l0.5,0.7l1.4,2.9l0.1,0.2l0.3,1.4L286.9,532.4L286.9,532.4z
	 M289.6,577.7l-0.2-0.4l-0.9-2.7l1.1-3l0.2-0.3l0.4,0.4l0,0.2l-0.2,0.3l0,0.2l0.3,0.1l0.4-0.1l0.3-0.1l0.3-0.4l-0.4-2.5l-0.4-1
	l-0.3-0.2l-0.2-0.2l0-0.2l0.1-0.2l0.2-0.2l0.2-0.1l0.3-0.1l0.8,0.3l0.2,0.3l0.1,0.2l0.2,1.8l0.1,0.7l-0.2,0.9l-0.6,2.5l-0.7,2.1
	l-0.6,1.1l-0.2,0.2l-0.2,0.1L289.6,577.7L289.6,577.7z M285.9,516.1l-0.7-2.2l-0.1-0.3l-1.3,0.6l-0.4,0.8l-0.1,0.2l-0.2,0.2l-0.3,0
	L281,514l-0.1-0.2l-0.1-0.2l0-0.3v-0.2l0-0.3l0-0.2l0.2-0.6l0.1-0.2l1-0.3l2.3,0.2l0.2,0.1l0.5,0.2l0.2,0.1l0.3,0.4l1,2.8v0.2
	l-0.5,0.5L285.9,516.1L285.9,516.1L285.9,516.1z M289.8,520l-1.2-1.4l-1.9-0.6l-0.6-0.4l0-0.3l0.1-0.3l0.4-0.6l0.2-0.2l0.8-1.1
	l1.9,0.1l0.3,0.3l0.7,0.8l0.1,0.7l0,0.3l-0.5,3.3l-0.2-0.1L289.8,520L289.8,520z M285.2,567.6l-0.1-0.3l0-1.6l0.5-0.6l0.6-0.9l0.1-1
	l0-1.5l0-0.3l0-0.3l0.1-0.2l0.1-0.2l0.6-0.5l0.2-0.1l0.2,0l1.6,1.4l0.1,0.6l0,0.6l-0.1,0.2l-0.2,0.2h-0.2l-0.2-0.2l-0.2,0l-0.1,0.1
	l-0.8,1.8l0.1,0.4l0,0.4l0,0.3l-0.1,0.3l-0.2,0.4l-1.7,1.1l-0.1,0.1L285.2,567.6L285.2,567.6z M300.2,583.5l-0.6-0.5l-0.5-0.9
	l-0.1-1.7l0.1-0.2l0.2-0.2l0.1-0.1l0.3,0l0.3,0.2l0.1,0.1l0.3,0.2l0.2-0.1l-0.5-1.1l-0.1-0.2l-0.3-0.3l-1.1-0.4l-0.7,0.1l-0.2,0.1
	l-0.3,0l-0.3-0.1l-0.4-0.3l0-0.3l0.9-0.8l0.2-0.1l0.3-0.1l0.1,0l0.2,0.1l0.2,0.1l1,0.9l0.9,0.9l0.5,0.6l2,2.4l0,0.3l-0.5,0.4
	l-1.6,0.9L300.2,583.5L300.2,583.5L300.2,583.5z M282.6,519.9l-0.1,0l-1.4-0.8l-0.2-0.1l-0.1-0.2l0.7-1.4l0.7-0.5l0.2,0l0.2,0.1
	l0.7-0.6l0.4-1l0.6-0.8l0.2-0.2l0.2-0.1l0.2,0.1l0.2,0.5l0.5,1.4l0.1,0.3l-0.3,0.5l-0.2,0.3l-0.1,0.1l-1.8,2L282.6,519.9
	L282.6,519.9z M293.1,552.4l-1-0.1l-0.5-0.2l-1.4-0.5l-0.2-0.3l-0.3-1.4l0.1-0.7l0.1-0.2l0.8-1l0.9-0.3l0.2,0.1l0.8,0.8l1.1,2.4
	l0,0.2l-0.1,0.8l-0.2,0.4L293.1,552.4L293.1,552.4z M300,574.3l-0.9-0.2l-1.8-1.1l-0.7-0.9l-1-2.8l1.7,0.6l2.6,2.1l1.1,0.7l0,0.2
	l-0.5,1.2l-0.1,0.2L300,574.3z M340,639.2l-0.2,0l-0.9-0.5l-0.7-0.6l-1.5,1l-0.2,0.1l-0.9-0.2l-0.6-1.4l0.7-1.3l0.6,0.1l2,0.4
	l0.8,0.3l0.4,0.3l0.4,0.2l0.3-0.1l0.3-0.2l0.2-0.3l0.2,0l0.7,0.5l0.4,1.1l-0.3,0.1l-0.4,0L340,639.2L340,639.2z M305.7,580l-0.1-0.2
	l-0.4-0.7l-0.6-0.9l-0.9-0.9l-0.2-0.2l-0.8-0.5l-1.7-1l-0.2-0.1l-0.2-0.2l0-0.7l0.2-0.8l0.5-0.3l0.2,0l0.2,0.2l2.2,2l0.7,0.6
	l0.5,0.5l0.1,0.2l0.7,1.5l0.3,1.1l0,0.3l-0.1,0.4l-0.2,0L305.7,580L305.7,580z M301.8,571.1l-0.3-0.1l-0.2-0.1l-1.8-1.3l-0.3-0.2
	l-0.2-0.3l0-0.4l0.1-0.2l0.6-0.1l0.6,0l0.7-1.2l-0.2-1.3l0.1-0.2l0.1-0.1l0.2,0l0.2,0.2l1.7,4.3l0,0.3l-0.2,0.2l-0.2,0.1l-0.3,0.2
	l-0.3,0.1l-0.1,0L301.8,571.1z M388.1,658.1l0-0.7l-0.1-0.1l-0.7-0.2l-0.8,0.2l-1.2-0.4l-0.1-0.6l0.2-1.1l1.5-1.6l0.8-0.4l0.2,0
	l1.1,3.3l0.2,0.9l-0.1,0.3l-0.3,0.3l-0.3,0.1L388.1,658.1L388.1,658.1z M290.9,578.2L290.9,578.2l-0.3-0.5l1.3-4.5l0.1-0.3l0.3-0.6
	l0.1-0.3l0.1-0.2l0.2,0l1.7,0.2l-0.1,0.3l-2.1,4.7l-0.1,0.2L290.9,578.2L290.9,578.2L290.9,578.2z M324.1,619.8l0.7,0.7l0.4,0.8
	l-0.6,1.2l-0.6,1.2l-0.3,0.1l-1.4,0.1l-0.5-0.1l-0.3-0.2l-0.1-0.2l-0.1-0.9l1.6-2.4l0.3-0.3l0.4-0.2l0.3,0L324.1,619.8L324.1,619.8
	L324.1,619.8z M304.2,583.5l-0.5-0.7l-0.4-1.2l-1.1-0.9l-1-1.3l-0.1-0.2l-0.1-0.5l0.2-0.3l0.4-0.2l0.1,0l0.6,0.4l0.5,0.9l1.8,1
	l0.3,0.3l0.2,0.3l0.1,0.2l0.3,1.4l-0.1,0.3l-0.2,0.2l-0.6,0.3L304.2,583.5L304.2,583.5L304.2,583.5z M309.5,604.9l0.3,0.1l0.2,0.3
	l-0.9,1.2l0.8,1.2l0.1,0.3l-1.2,0.7l-0.3-0.1l-1.7-1l-1.6-1.2l-0.2-0.3l-0.2-0.4l0-0.2l0.2,0l0.5,0.5l0.4,0.3l0.3,0.2l0.2,0.1l0.1,0
	l0.5,0l1.1-0.4l0-0.2l-0.1-0.1l-0.4-0.2l0.2-0.8l1.5,0L309.5,604.9L309.5,604.9L309.5,604.9z M286.6,514.4l-0.3-0.5l-1.1-3.3l0.4,0
	l0.6,0.2l0.2,0.1l0.4,0.2l0.4,0.3l0.4,0.3l0.2,0.2l0.1,0.2l0.2,0.3l0.1,0.2l0.2,1l0,0.2l-0.1,0.2l-1.3,0.6l-0.2,0L286.6,514.4
	L286.6,514.4z M296.6,558.8l-1.7-0.8l-0.2-0.2l-0.4-1.1l0.1-0.6l1.4-1l0.2,0l0.1,0.1l0.2,0.3l0.8,1.7l0.1,0.2l0,0.2v0.6l-0.3,0.7
	L296.6,558.8L296.6,558.8L296.6,558.8z M298.5,559.1l-0.5-2.7l-0.2-1.2l-0.1-1.9l0.1-0.2l0.3,0l0.3,0.5l0.8,2.5l0.5,1.8l0.1,0.8
	l-0.7,0.9l-0.2,0.1l-0.2,0l-0.1-0.2L298.5,559.1L298.5,559.1L298.5,559.1z M350.1,624.1h-0.2l-0.3,0l-1.7-0.7l-0.2-0.1l-0.5-0.8
	l-0.1-0.2l0-0.3l0.1-0.4l0.1-0.3l0.2,0l0.3,0.1l2.3,0.9l0.8,0.5l0.2,0.4l0,0.3l-0.2,0.3l-0.3,0.4l-0.2,0.1L350.1,624.1L350.1,624.1z
	 M311.5,621l-0.8-0.4l-1.6-0.7l-0.1-0.2l1-0.9l0.5,0l0.4,0l0.9,0.1l0.2,0.1l0.7,0.4l0.1,0.2l0.2,1.1l-0.2,0.2l-0.2,0.1L311.5,621
	L311.5,621z M394.1,645.4l0.3,0.3l0.3,1.1l-0.2,0.5l-0.4,0.3l-0.2,0.1l-1.4-0.1l-0.6-0.1l-0.1-0.1l-0.1-1.1l0.4-0.6l0.3-0.2l1-0.4
	l0.4,0l0.2,0.1l0.2,0.1L394.1,645.4L394.1,645.4z M313.6,576.3l-0.1-0.4l0.1-0.4l0.1-0.3l0.1-0.2l0.5-1.2l0.1-0.1l1-0.5l1-0.4
	l-0.1,0.7l-1.3,2.6l-0.4,0.1l-0.7,0.3l-0.3,0l-0.1-0.1L313.6,576.3L313.6,576.3z M301.1,562.3l-0.2-0.1l-0.2-0.2l-0.2-1.4l0-0.2
	l0.1-1l0.1-0.2l0.1-0.1l0.2,0l0.9,0.2l0.3,0.2l0.1,0.3l0.2,1.1l0,0.5l-1.2,1L301.1,562.3L301.1,562.3z M287.5,511.3L287.5,511.3
	l-1.5-1l0-0.3l0.8-1l1.4-1.6l0.2,0l0.1,0.2l0,0.2l0.1,0.3l0,0.3l0,0.3l-0.3,1.4l-0.3,0.9l-0.1,0.2L287.5,511.3L287.5,511.3z
	 M292.3,544.4l-0.3-0.1l-0.1-0.2l0.4-1.9l0.7-0.6l0.1-0.1l0.2,0l0.8,0.1l0.8,0.3l0,0.2l-0.2,0.3l-1.1,0.9l-1.1,0.9l-0.2,0.1
	L292.3,544.4L292.3,544.4z M296.6,526.7l-0.1-0.8l-0.1-1.8l0.1-0.8l0.1-0.3l0.2-0.1l0.8,0.7l0.3,0.3l0.1,0.2l0.6,1.2l-0.1,0.2
	l-1.6,1.4L296.6,526.7L296.6,526.7z M287.8,573.2l-0.1-0.1l-0.1-0.2l0.3-2l0.2-0.8l0.1-0.2l0.2-0.2l0.3-0.2l0.3-0.1l0.3,0.1l0.3,0.3
	l0,0.3l-0.1,0.8l-0.2,0.8l-0.2,0.6l-0.1,0.2l-0.1,0.2l-0.6,0.5l-0.3,0.1L287.8,573.2L287.8,573.2z M300.4,563.9l-0.8-0.4l-0.5-0.4
	l-0.2-0.2l-0.2-1.1l0-0.6l0.1-0.4l1-0.4l0.2,0.1l0.7,1.9l0.1,0.2l0,1.1l-0.1,0.2L300.4,563.9L300.4,563.9L300.4,563.9z M397.8,646.6
	l-0.6-0.2l-0.1-0.2l-0.1-0.4l0-0.2l0.2-0.9l1.1-0.8l0.3,0l0.2,0l0.9,0.4l0.2,0.4l-1.2,1.5l-0.8,0.4H397.8L397.8,646.6z M347.7,636.6
	l0.3,0.1l0.3,0.1l0.3,0.4l-0.1,0.2l-0.2,0.1l-2.4,0.5h-1l-0.7-0.4l-0.2-0.3l0.2-0.2l0.4-0.3l1.4-0.4l1-0.1L347.7,636.6L347.7,636.6
	L347.7,636.6z M288.4,550.5l-0.2-0.2l-0.1-0.2l-0.3-0.9l0-0.4l0.4-1.2l0.2-0.1l1,0l0.1,0.2l0,0.3l-0.1,2.7l-0.2,0.1l-0.4,0
	L288.4,550.5L288.4,550.5z M321.9,627.5l-0.2-0.1l-0.6-0.9l-0.2-0.9l1.4-0.8l0.3,0l1.4,0.6l0.1,0.2l-0.1,0.5l-0.9,0.4l-0.2,0
	L321.9,627.5L321.9,627.5z M292.8,576.6l0.1-0.5l0.1-0.2l0.1-0.2l2-2l0.5,0.3l0.3,0.3l0,0.6l-0.1,0.4l-0.7,0.5l-1.5,1l-0.6,0.3
	l-0.1-0.1L292.8,576.6L292.8,576.6z M349.2,621.5l-0.1,0l-1.1-0.8l-0.4-0.4l-0.2-0.3l-0.1-0.3l0.1-0.2l0.1-0.1l2.2-0.4l0.1,0.2
	l0.1,0.4l0.1,0.4l-0.3,0.9l-0.2,0.4l-0.2,0.1L349.2,621.5L349.2,621.5z M304.2,609.1l-0.1-0.1l-0.3-1.1l0.1-1.7l0.1-0.2l0.2,0
	l1.7,1.2l0.3,0.2l0,0.3L306,608l-1.3,0.9l-0.2,0.1l-0.2,0.1L304.2,609.1L304.2,609.1z M309.7,595.4l-0.4,0l-0.2,0l-0.4-0.5l-0.1-0.2
	l0.1-0.3l0.2,0l0.1-0.1l-0.5-0.3l-0.5-0.2l-1-0.1l-0.2,0l-1.1,0.2l-0.3,0.2l-0.1-0.2l0.7-0.6l1.6-0.4l1.9,0.5l0.2,0.1l0.5,0.7
	l-0.2,1L309.7,595.4L309.7,595.4z M304.7,571.5h-0.1l-0.3-0.1l-0.2-0.1l-0.1-0.2l-1.1-2.3l0-0.4l0.1-0.2l0.3,0l0.9,0.5l0.7,0.9
	l0.4,0.9l0,0.3L304.7,571.5L304.7,571.5z M384.5,660.7l-0.4-1.1l-0.1-0.1l-0.8,0l-1.5,0.4l-0.2-0.1l-0.1-0.2l0-0.4l0.2-0.5l0.4-0.1
	l0.1,0l0.3,0.1l0.3,0.1l0.5,0.1l1.4,0l0.5-0.4l0.1-0.1l0.6,0.2l0.2,0.3l-0.4,1.1l-0.1,0.2l-0.6-0.2l-0.2,0L384.5,660.7L384.5,660.7z
	 M392.2,640.1l0.6,0.2l1.4,0.5l0.2,0.2l0.5,1.7l-0.2,0.1l-0.3-0.1l-2.9-2l-0.1-0.3l0.1-0.2l0.1-0.1l0.3,0L392.2,640.1L392.2,640.1z
	 M292.5,581.9l-0.8-0.8l-0.1-1.1l2.2-0.6l0.3,0.1l0.1,0.2l-0.9,1.8l-0.4,0.3l-0.3,0.1L292.5,581.9L292.5,581.9z M304.9,562.2
	l-0.9-0.2l-0.1-0.1l-0.3-0.3l-0.3-0.8l0.1-0.2l0.3-0.3l0.5-0.5l0.2-0.1l0.2,0.1l0.2,0.1l0.2,0.2l0.1,0.2l0.1,0.2l0.1,0.4l0,0.4
	L305,562L304.9,562.2L304.9,562.2L304.9,562.2z M289.1,509.5l-0.3,0l-0.2-0.1l0-0.3l0.5-1.1l0.2-0.3l1.1,0l0.6,0.1l0.4,0.2l-1.2,1.1
	l-0.2,0.2l-0.2,0.1l-0.4,0.1L289.1,509.5L289.1,509.5z M292.1,579.2l-0.2-0.1l-0.1-0.2l-0.1-0.2l0-0.4l0.2-0.5l2.3-1.3l0.2,0.4
	l-1.1,1.9l-0.8,0.3l-0.2,0.1L292.1,579.2L292.1,579.2z M383,654.3l-0.1-0.2l0.5-2.3l0.2-0.3l0.3-0.2l0.2,0l0.2,0.2l0.1,0.2l0.2,0.3
	l0.1,0.2l0.1,0.4l0,0.8l-0.7,0.5l-0.3,0.2l-0.3,0.1L383,654.3L383,654.3z M351.6,640.4l-0.1,0l-0.2-0.1l-0.2-0.2v-0.2l0.2-0.2
	l0.2-0.1l1.9-1l0.2-0.1l0.2,0l0.1,0.1l0.2,0.2l0,0.3l-0.4,0.7l-1.2,0.5L351.6,640.4L351.6,640.4z M301.4,601.8l-0.1,0.3l-0.6,1
	l-0.4,0.2l-0.8,0.3l-0.2,0l-0.1-0.1l-0.2-0.3l0-0.2l0.7-0.7l0.5-0.5l0.5-0.4h0.2l0.2,0.1l0.3,0.3L301.4,601.8z M389.3,660.5
	l-1.3-0.7l-0.8-0.7l0.1-0.3l0.1-0.1l0.2-0.1l0.7,0.1l0.9,0.3l0.4,0.6l0,0.8L389.3,660.5L389.3,660.5z M303.9,573.2l-1-0.2l-0.1-0.1
	l-0.1-1l0.4-0.8l0.2-0.1l0.2,0l0.1,0.1l0.1,0.2l0.2,0.3l0.6,0.9l-0.1,0.3l-0.3,0.3L303.9,573.2L303.9,573.2z"/>
<path id="CL-TA" class="st0" d="M350.1,42.5l2.1-0.1l2-1.3l2-1.5h3.5l2,1.5l2-0.3l0.3-1.5l1.3-1.3h2l0,0l-0.2,0.4l0.8,1.5l1.5,1.1
	l0.5,0.5l1.1,1.2l0.2,0.2l0.4,0.2l0.3,0.1l0.4,0.2l0.8,0.7l0.6,0.9l-1.4,1.4l-0.3,0.4l-0.4,0.6l-1.1,1.3l0,0.5l0.8,0.6l0.8,0.7
	l0.6,1.1l-0.7,1.9l-0.4,0l-0.5,0.1l-1.6,0.4l-0.1,0.3l0.2,0.3l0.6,1.4l0.2,1.4l-0.4,0.2l-0.3,0.3l0,0.7l0.2,0.4l0.2,0.3l0.4,0.5
	l0.4,0.3l0.4,0.2l0.4,0.2l0.4,0.1l0.3,0.1l0.7,0.5l0.3,0.4l-0.1,0.3l-0.5,0.3l-0.3,0.2l-0.5,0.6l0,1.9l0.1,0.3l0,0l0,0l-1-0.1
	l-2.3-0.3l-1.1,0.1l-0.3,0.1l-0.2,0.1l-0.1,0.3l0.2,0.3l0.4,0.2l1,0.4h0.4l0.3,0l0.7-0.2l0.4,0.1l0.2,0.3l-0.1,0.6l-0.1,0.4l-0.5,1
	l-0.2,0.3l-0.2,0.4l-0.1,0.4v0.4l-1.2,0.5l-1.6,0.2l-3.5,1l-4.1,1l-1,0.2l-0.9-0.3l-0.8-0.1l-1.5-0.2l-0.3,0l-1.4,0.1l-0.2,0.1l0,0
	l-0.4-0.8l-0.1-0.4l0.3-0.5l-0.7-2.7l-0.3-0.7l-0.3-0.6l0.2-0.8l0.2-0.4l-0.1-0.7l-0.2-0.4l-0.2-0.2l-0.5-0.4l0.5-5.6l0.4-1.2
	l0.1-0.4l-0.3-0.9l0.1-1l0.2-0.4l0.1-0.4l0-1.1l0-0.4l-0.2-0.9l-0.5-3.6l-0.4-2.1l-0.5-1.7l-0.6-1L350.1,42.5z"/>
<path id="CL-AN" class="st0" d="M373,65.6l0.3,0.1l0.3,0l0.4,0l2.5,4l0.5,0.9l0,4.3l0.2,0.3l0.4,0.5L378,76l0.2,0.7l0.2,1l0,0.3
	l0,0.5l0,0.5l0,0.7l1.1,1.2l0.3,0.2l0.4,0.6l0.3,1.9V84l-0.1,0.4l0.5,1.8l0.5,1.8l-0.4,2.2l0.1,1.6l1.1,0.7l2.8,0.3l3.1-0.7l2-0.4
	l1,1.1l1.3,1.4l-0.6,1.7l-0.6,1.6l-0.6,1.6l-0.2,0.5l-2.4,8.8l-3.9,1.8l-3.3,1.5l-3.8,1.7l-0.8,0.4l-0.3,0.7l-0.5,0.7l-0.6-0.1
	l-0.3,0.2l-0.9,1.4l-0.6,0.9l-0.4,0.8l-0.3,0.7l0,0.4l0.3,0.8l0.6,0.4l1.9,3.2l-0.8,0.4l-0.9,0.1l-0.1,0.1l-0.2,0.4l-0.3,1l0,0
	l-0.7,0l-0.5,0.1l-0.4,0.3l-0.5,0.4l-0.4,0.4l-0.3,0.2l-0.3,0.1l-0.6,0l-0.5-0.1l-0.4,0.1l-0.5,0.2l-0.4,0.2l-0.3,0.2l-0.7,0.5
	l-0.3,0.7l-0.1,1l-0.3,0.5l-0.3,0l0.1,2.5h-3.8l-0.5,1.5l-1.3,0.3l-1.3,1.5l-2-1.5l-1-1.4l-0.2,0l-0.9-0.1l-0.4-0.1l-0.5,0l-0.5,0.2
	l-0.2,0.1l-0.5,0.3l-0.3,0.3l-1.6,1l-0.9,0.1l-1.2,0.2l-0.6,0.1l-0.4,0.1L347,136l-0.2,0.1l-0.2,0.1l-0.7,0.5l-0.6,0.9l0,0l0.4-0.6
	l0.1-0.3l0-0.5l-0.3-0.8l-0.4-0.4l-0.3-0.3l-0.4-1l0.4-1.5l0.2-0.7l0.6-1.4l0.8-1l0.5-0.4l1.1-1.5l0.2-1.5l0-0.8l-0.3-0.8l-0.6-0.8
	l0.1-1.9l-0.4-0.8l-0.2-0.8l-0.5-1.8l0.2-2.2l0.3-2.3l0.1-0.7l-0.2-0.3l0.2-1.2l0.2-0.7l0.1-0.3l0.1-1l-0.1-0.8l-0.2-0.5l0-0.5
	l0.1-1.8l0.2-1l0.4-0.5l0.3-0.3l0.2-0.4l0.3-0.7l0.1-0.4l0.1-0.3l0-0.6l-0.1-0.4l-0.2-0.4l-0.2-0.2l-0.4-0.3l-0.4-0.2l-0.3,0.1
	l-0.4,0.8l-1.1-0.2l0.3-1.7l0.1-2l0.3-2.3l0.5-0.5l0.5-0.2l0.1,0.6l0.3,0.3l0.8-0.1l0.4-0.2l0.3-0.2l0.2-0.3l0.2-0.2l0.4-0.9
	l0.3-0.8l-0.1-0.4l-0.1-0.3l-0.1-0.6l0.3-2l0.3-2.7l0.2-1.9l0.3-2.1l0.2-0.9l0.3-1l0.5-3.5l-0.1-0.4l0-0.9L352,75l0.6-0.5l0.1-0.7
	l0.4-1.5l0,0l0.2-0.1l1.4-0.1l0.3,0l1.5,0.2l0.8,0.1l0.9,0.3l1-0.2l4.1-1l3.5-1l1.6-0.2l1.2-0.5v-0.4l0.1-0.4l0.2-0.4l0.2-0.3l0.5-1
	l0.1-0.4l0.1-0.6l-0.2-0.3l-0.4-0.1l-0.7,0.2l-0.3,0h-0.4l-1-0.4l-0.4-0.2l-0.2-0.3l0.1-0.3l0.2-0.1l0.3-0.1l1.1-0.1l2.3,0.3l1,0.1
	l0,0l0.1,0.1l0.3,0.3L373,65.6z"/>
<path id="CL-AT" class="st0" d="M372.1,127.1l-0.3,1.1l-0.1,0.3l0,0.4l0,0.3l0.6,1.7l0.7,1.4l0.1,0.4l0.5,2.3l0.7,3.6l-0.3,0.4
	l-0.8,0.7l-0.5,0.4l-0.3,0.3l-0.2,0.3l-0.2,0.7l0,0.4l-0.1,0.8v0.3l0,0.7l0.1,0.3l0.1,0.3l0.4,0.6l1.4,1.6l1.8,2.8l0.1,0.3l-0.5,1.6
	l-0.4,0.2l-0.5,0.3l-0.2,0.1l-3,1l-0.6-0.4l-0.6-0.1l-0.6,0l-0.3,0.2l-0.5,0.8l-0.3,0.5l-0.1,0.4l0.1,0.6l-0.4,1.2l-1.8,3.4
	l-0.4,0.4l-0.5,1.5l-0.1,0.6l-0.5,1.9l-0.1,0.3l-0.2,0.4l-0.2,0.3l-0.4,0.1l-0.5,0l-0.5,0.2l-0.4,0.9l-0.1,0.6l-0.2,0.3l-0.6,0.8
	l-1.7,2l-0.9,0.8l-0.6,0.5l-0.1,2.1l-0.1,0.5l-0.4,0.2L357,175l0,0.7l0.1,0.3l0.1,0.3l0.1,0.5l-0.4,1.3l-0.4,1.9l0,0.8l-0.1,0.4
	l-0.2,0.3l-0.4,0.3l-0.8,0.1l-0.8,0.9l-0.9,1.3l-0.1,0.9l0.1,0.3l0.3,0.7l0.5,1.6l0,0.2l0,0l-1.6-0.1l-2.3-1l-1-0.5l-1.8-0.5
	l0.1-0.4l0-0.6l-0.2-0.6l-0.2-0.2l-1.7-2l-0.3-0.3l-0.4-0.3l-0.4-0.3l-0.4-0.2l-0.4-0.1l-1,0.8l-0.5,1l-1,2.5l-2,0.3l-1-1.5
	l-0.8-1.8l-0.2,0.1l-0.3,0.1l-1.6,0.4l-0.5,0.1l-0.5,0l0,0l0.2-1.1l-0.4-2l0-1.2l0.1-0.4l0.4-0.5l1.2-1.1l1-1.3l0.1-0.8l0.1-0.9
	l0.3-0.6l0.4-0.6l0.9-1.8l0.1-1.7l0-1.2l0.2-2.8l0.5-1.7l0.3-0.9l0.5-0.9l0.5-0.7l0.6-0.3l0.7-0.5l0.3-2L342,157l-0.4-1.5l-0.4-2.2
	l0.1-0.4l0.2-0.4l0.3-0.2l0.8-0.2l0.6-0.9l0.4-0.7l-0.2-0.9l-0.2-0.5l-0.1-0.4l1.6-3.9l0.1-0.5l0.1-1.8l0.6-1.9l-0.4-1.5v-0.5
	l0.1-1.1l0,0l0.6-0.9l0.7-0.5l0.2-0.1l0.2-0.1l0.3-0.1l0.4-0.1l0.6-0.1l1.2-0.2l0.9-0.1l1.6-1l0.3-0.3l0.5-0.3l0.2-0.1l0.5-0.2
	l0.5,0l0.4,0.1l0.9,0.1l0.2,0l1,1.4l2,1.5l1.3-1.5l1.3-0.3l0.5-1.5h3.8l-0.1-2.5l0.3,0l0.3-0.5l0.1-1l0.3-0.7l0.7-0.5l0.3-0.2
	l0.4-0.2l0.5-0.2l0.4-0.1l0.5,0.1l0.6,0l0.3-0.1l0.3-0.2l0.4-0.4l0.5-0.4l0.4-0.3l0.5-0.1l0.7,0l0,0l-0.1,0.1l-0.3,0.6L372.1,127.1z
	"/>
<path id="CL-CO" class="st0" d="M334.5,182.5l0.5,0l0.5-0.1l1.6-0.4l0.3-0.1l0.2-0.1l0.8,1.8l1,1.5l2-0.3l1-2.5l0.5-1l1-0.8l0.4,0.1
	l0.4,0.2l0.4,0.3l0.4,0.3l0.3,0.3l1.7,2l0.2,0.2l0.2,0.6l0,0.6l-0.1,0.4l1.8,0.5l1,0.5l2.3,1l1.6,0.1l0,0l0,0.1l0,0.7l-0.1,0.4
	l-0.1,0.4l0.1,0.3l0.2,0.2l0.4,0.3l0,0.1l0.1,1.2l0,1.8l-0.1,0.8l-0.1,0.4l0.8,1.5l0.3,0.2l0.2,0.4l0,0.7l-0.9,2l-0.5,0.7l-0.8,0.3
	l-0.4,0l-0.3,0l-1.1,0.7l-1,1.8l-0.5,1.2l-0.2,0.6l-0.6,2.2l-0.1,1l-0.1,0.6l0,0.4l0.5,0.6l0,0.5l-0.9,1l-0.9,0.3l-0.3-0.3l-0.9,1
	l-0.1,0.3l-0.4,2.1l-0.1,2.2l-0.1,0.9l-0.1,0.5l1.7,4.1l0.2,0.2l0.2,0.3l0.2,0.2l0.5,0.1l0.9-0.1l0.3,0.1l0.6,0.7l0.1,0.4l-0.4,1.2
	l-0.5,0.1l-0.5,0.6l0.4,2.1l-0.1,0.6l0,0l-1.2,0.2l-0.4-0.2l-0.1-0.4l-0.2-0.7l-0.4-0.3L347,227l-0.3,0l-0.4,0l-0.6-0.1l-0.6-0.4
	l0-0.4l0-0.5l-0.9-0.5l-3.9,0.1l-0.4,0.6l-0.6,0.7l-0.3,0.2l-2.7,0.6l-0.5,0l0,0l-0.4-0.1l-0.6-0.3l0,0l-0.4,0l-0.3,0.2l-0.3,0.3
	l0,0l0.1-1.4l0.1-0.7l0.1-0.4l0.1-0.6l0-1.3l-0.1-1.8l-0.4-0.9l-0.3-1.5l0-0.9l-0.1-0.4l-0.7-3.1l-0.5-2l-0.1-0.3v-0.5l0.2-0.8
	l0.1-1.4l-0.2-0.5l-0.2-0.4l-0.1-0.3l-0.3-2.1l0-1.6l0-1.5l0-0.8l0.2-2.4l0.4-1l0.4-0.1l0.2,0.2l0.4,0.2l0.3,0l0.5-0.2l1.4-1.4
	l0.3-0.5l0.6-3l0.6-0.7l0-1.1l-0.4-0.4l-0.2-0.9l0.1-2.9l0.2-1.1l0.2-0.5l0-0.3l-0.4-1.4l-0.2-0.3l-0.3-0.3l-0.7-0.5l-0.3-0.2
	l-0.3-0.2l-0.1-0.3L334.5,182.5z"/>
<path id="CL-RM" class="st0" d="M353.1,259.6l0-0.3L353,259l-0.3-0.2l-0.6-0.2l-0.4-0.4l-0.1-0.3l0-1l-0.2-0.6l-0.2-0.2l-0.4,0
	l-0.4,0.3l-0.3,0.1l-0.9-0.3l0.1-0.8l-0.5-1.7l-0.3-0.3l-0.5-0.2h-0.5l-1.5,0.6l-0.5,0.3l-0.9,0.1l-0.4-0.1l-1.1,0.7l-1.7,2
	l-0.1,0.4l0,0.7l-1.1,0.2l-1.2,0l0,0l-1.1-1.5l-1.6-0.7l-0.8-1.5l-2.1,0.1l-1.3-0.5l0,0l0.7-0.4l0,0l0.4-1.4l0.3,0l0.7,0l0.7,0.2
	l0.4,0l0.6-0.7l0.6-2.1l-0.5-1.2l-0.2-1.1l0-0.3l0.3-0.2l0.9-0.9l0.4-0.5l0.1-0.4l0-1.1l0.2-0.3l0.8-0.1l0.8,0l0.9-0.6l0-1.9
	l-0.2-0.7l0.1-0.6l0.3-0.1l1.5-0.6h1.8l1.2,0.3l0.7,0.2l0.5,0.5l0.2,0.6l0.4,0.6l0.3,0l0.8-0.7l0.3,0l0.9,1l1.3,0.6l1.1-0.9l0.7-0.4
	l0,0l0.2,0.4l-0.1,0.7l-0.1,0.5l0.1,0.4l1.2,1.8l0.3,0l0.3-0.5l0.4-0.4l0.3-0.1l0.4,0.1l0.9,0.5l0.4,1.7l-0.1,0.4l-0.3,0.4l-0.8,1.8
	l-0.5,3.4l0,0.8l0.3,1l0.5,3.2l0.4,2.1l-0.9,0.7l-0.6,0l-0.3-0.1l-0.4,0l-0.6,0.1L353.1,259.6z"/>
<polygon class="st0" points="354.3,235.7 353.1,234.2 352.3,233.4 351.8,232.8 351.9,232.2 351.8,231.8 350.8,229.7 350.6,229.2 
	349.7,228.8 349.6,228.6 348.4,228.7 348,228.5 347.9,228.1 347.7,227.4 347.4,227.1 347,227 346.7,227 346.4,227 345.8,226.9 
	345.2,226.5 345.2,226.1 345.1,225.6 344.2,225.1 340.3,225.2 339.9,225.8 339.3,226.5 339,226.7 336.3,227.3 335.8,227.3 
	335.8,227.3 335.4,227.2 334.8,226.9 334.5,226.9 334.2,227.1 333.9,227.4 334.2,228.3 334.8,229.1 335.6,230.5 335.1,232 
	335.1,234.2 335.1,234.7 334.9,235.1 334.4,236.1 334.1,238.2 333.5,239.9 331.8,241.1 331.2,241.1 331.1,241.4 331.7,243.7 
	331.9,245.5 332.6,248.3 332.5,249.5 332.4,250 332.3,250.3 332.1,250.9 331.6,251.3 331.2,251.5 330.8,251.6 330.4,251.7 
	330,252.7 329.6,254.1 330.2,254.1 330.6,254.4 331,254.5 331.5,254.6 332,254 333.2,253.2 333.6,251.8 333.9,251.8 334.6,251.8 
	335.3,252 335.7,252 336.3,251.3 336.9,249.2 336.4,248 336.2,247 336.2,246.7 336.6,246.5 337.5,245.6 337.9,245 338,244.7 
	337.9,243.6 338.1,243.3 338.9,243.1 339.7,243.1 340.6,242.5 340.6,240.6 340.4,239.9 340.5,239.3 340.8,239.2 342.3,238.6 
	344,238.6 345.3,238.9 345.9,239.2 346.4,239.7 346.6,240.3 347.1,240.9 347.4,240.9 348.2,240.2 348.5,240.3 349.4,241.3 
	350.7,241.9 351.8,240.9 352.5,240.6 352.8,239.9 353.5,239 353.8,237.9 354.4,236.9 "/>
<path id="CL-AR" class="st0" d="M308.5,324L308.5,324l0.3,0.1l0.4,0.2l1.1,0.7l3.4-3.3l0.2-0.4l0.1-0.3l0.1-0.5l-0.2-0.4l-0.5-0.2
	l-0.5-1.3l1.5-2.4l0.4-0.4l0.1-1.5l-0.2-0.3l-0.8-0.1l-0.3-0.3l1.2-1.5l1.8-0.3l0.5,0.3l0.5,0.4l0.5,0.3l1.8,0.4l1.1,0l0.8,0.9
	l0.4,0.9l0.8,1.1l0.6,0.4l0.3,0.1l0.4,0.1l0.5,0.1l0.3,0.2l1.1,1l0.2,0.4l0.4,0.5l0.3,0.2l1.9,0.3l1.6-0.2l0.4-0.1l0.4,0.2l0.4,0.6
	v0.7l-0.1,0.5l0,0.5l0.1,0.4l0.3,1l0.2,0.3l0.5,0.3l0.2-0.4l0.2-0.4l0.2-0.2l1.1-0.5l0.8-0.4l0.2-0.2l0.2-0.6l1.3-0.3l3-0.1l0.8,0.1
	l0,0l0,0.7l-0.2,1.2l0.1,0.9l0.4,2.1l0.3,0.6l0.6,0.6l0.3,0.2l0.5,0.4l0.2,0.6l-0.1,0.5l-0.4,1.7l-0.8,0.8l-0.3,0.1l-0.6,0l-0.4,0
	l-0.4,0.1l-0.6,0.3l-1.8,1.1l-1.2,0.7l-0.3,0.2l-0.4,0.4l-0.2,0.4l-0.1,0.4l-0.1,0.9l0,0.4l0.1,0.4l0.1,1.1l0.2,1.8l-0.2,1.5
	l-0.6,1.8l-0.5,2.1l-0.1,0.6l-0.2,0.3l-1.2,0.1l-0.3-0.2l-0.5-0.8l-0.2,0l0,0l0-0.4l-0.1-0.4l-0.2-0.4l-0.3,0l-0.9,0l-0.7-0.5
	l-0.4-0.3l-0.4-0.3l-0.3-0.1l-2.1-0.2l-0.3,0.1l-0.3,0.2l-0.4,0.4l-0.3,0.3l-0.3,0.2l-1.2,0.5l-0.5-0.1l-0.6-0.3l-1.9-0.7l-0.4,0
	l-1,0.2l-0.4,0l-0.4,0l-0.4-0.1l-0.3-0.2l-0.4-0.4l-0.4-0.7l-0.1-1l-0.3-0.2l-1.9,0l-0.6,0.8l-0.3,0.4l-0.3,0.4l-0.4,0.2l-0.4,0
	l-0.4,0l-0.3-0.1l-0.4-0.1l0,0l0.3-0.6l-0.1-1.8l-0.7-2.6l-2.3-6.5l-0.8-2.5l-0.3-2l0-0.5l0.2-1L308.5,324z"/>
<path id="CL-LI" class="st0" d="M332.5,253.7l1.3,0.5l2.1-0.1l0.8,1.5l1.6,0.7l1.1,1.5l0,0l1.2,0l1.1-0.2l0-0.7l0.1-0.4l1.7-2
	l1.1-0.7l0.4,0.1l0.9-0.1l0.5-0.3l1.5-0.6h0.5l0.5,0.2l0.3,0.3l0.5,1.7l-0.1,0.8l0.9,0.3l0.3-0.1l0.4-0.3l0.4,0l0.2,0.2l0.2,0.6l0,1
	l0.1,0.3l0.4,0.4l0.6,0.2l0.3,0.2l0.1,0.3l0,0.3l0,0l-0.1,0.2v0.9l0.1,0.7l-1.3,2l-1.1,2l-0.8,3l-0.8,2.2l0,0l-0.1,0l-0.8-0.1
	l-2.3-0.2l-1.5-1.1l-0.5-0.6l-0.3-0.2l-3.6-1.1l-0.5-0.1h-0.4l-2.3,0.2l-1.1,0.9l0,0.3l0.1,0.5l-2-0.4l-2-0.1l-1.3-0.4l-1.8-0.7
	l-0.4-0.7l-0.7-0.9l-0.2-0.2l-0.4-0.2l0,0l0.1-0.6l0.2-2.1l-0.1-0.9l0-0.6l0.3-0.4l0.5-0.3l0.1-0.4l0-0.8l-0.1-1.2l-0.3-0.4
	l-0.1-0.3l0-0.5l1.5-2.8l0.4-0.5l0,0l0.6,0l0.3,0.3l0.5,0.1l0.4,0.1l0.5-0.6l0,0L332.5,253.7z"/>
<path id="CL-LL" class="st0" d="M293.9,413.9l-0.2,0.2l-0.3,0l-0.3,0l-0.2,0l-0.3,0.1l-0.2,0.1l-0.5,0.4l-0.1,0l-0.2-0.1l-0.4-0.7
	l-0.1-0.2l-0.1-0.2l-0.1-0.2l0-0.3l1.1-0.5l0.2,0l1.1,0.6l0.1,0.1l0.3,0.3L293.9,413.9L293.9,413.9z M309.7,394.9l0,0.6l-0.2,0
	l-0.1-0.5l-0.1-0.2l-0.1-0.2l-0.2-0.2l-1.2-0.6l-0.2-0.1l-0.4-0.1l-0.2-0.1l-0.4-1l0-0.2l0.2-0.1l0.3,0l0.4,0l0.3,0.1l0.2,0.2
	L309.7,394.9L309.7,394.9z M303.6,382.8l-0.3,0.4H303l-0.3-0.2l-0.3-0.1l-0.2,0.4l0.4,0.5l1.1,0.4l0.3-0.3l0.5-0.4l1.4-0.8l1.3-0.2
	l0.4,0l0.9,0.6l-0.3,2.3l1,1.6l-0.2,0.6l-0.4,0.1l-0.1,0.4l0.2,0.5l0.9,0.6l0.3,0.1l0.3,1l-0.1,0.6l-0.2,0.4l-1.4,0.3l-0.7-0.1
	l-0.3,0l-0.9,0.5l-0.3,0.2l-0.2,0.3l-0.1,1.5l0.4,0.4l0.3,0.2l0.2,0.2l-1.4,0.6l-0.7-0.6l0.2-0.7l-0.4,0.1l-0.3,0.7l0.2,1.6l2.4,2.4
	l0.6,0.2l0.7,0.5l0.2,0.2l0.2,0.9l-0.1,0.4l-1,0.2l-0.5,0l-0.4,0.2l-0.1,0.7l0.4,0.5l0.7,0.5l0.1,0.3l0.4,0.9l0.3,0.5l0.2,0.5
	l-0.3,0.3l-2.9-0.3l-0.5,0.2l0.2,1.5l0.3,0.4l0.4,0.3l0.2,0.6l-0.3,1.6l-0.3,0.1l-1.7,0.4l-0.5-0.3l-0.3-0.3l-0.3-0.1l-1.2-0.1
	l-1.4-0.2l-1.7-0.5l-1.2-0.6l-0.2-0.2l-0.2-0.4l0.9-2.4l1.2-1.5l-0.2-0.6l0.4-0.4l0.6-1.4l0.4-4.2l-0.1-1.2L300,395l-0.2-0.2
	l-0.3-0.2l0.2-1.5l0.3-3.2l0.1-0.3l0.2-0.4l0.3-0.3l0.6-0.6l0.4-1.4l0.4-2.6l-0.5-1l-0.1-0.4l0-0.3l0.4-0.7l1.5,0.1L303.6,382.8
	L303.6,382.8z M305.4,356.3l3.9,0.3l0.8,1.3l1.3,0.3l2-1.5l2,0.8l1.3,2.3l1.8,1.3l2.3,2l2.5,1l1.5-1.8l1-1.5l2-0.3l2.3,0.3l0,0
	l0,0.7l0,0.5l-0.3,0.7l-0.3,0.4l-0.3,0.3l-0.4,0.3l-0.3,0.4l0.5,1.3l0.8,1.8l0.2,0.7l-0.3,1l0.2,0.8l-0.3,3.1l-0.1,0.4l-0.2,0.5
	l-0.2,1.1l0.1,0.5l0.3,0.8l0.2,2l-0.5,0.9l-0.3,0.3v0.5l0.8,2l0.8,1.6l0.1,0.4l0.2,1l0,0.9l0.4,0.5l0.1,1.1l-0.7,0.6l-1.7,0.8
	l-0.4-0.1l-0.1-0.4l-0.2-0.3L328,388l-0.3,0.2l-0.3,0.3l-1.2,2.4l0.3,0.5l0.7,0.6l0.2,0.3l-0.9,2.7l-0.2,0.4l-0.1,0.4l-0.1,0.4
	l0.1,1.4l0.2,0.9l0,0.7l0.1,1.7l0,0.5l-0.1,0.6l-0.2,0.4l-0.1,0.3l0,0.9l0.2,0.6l0.5,0.9l0.3,0.3l0.7,0.3l0.5,0l0.4,0l0.8,0.1
	l0.4,0.1l1.2,0.8l0.1,1.8l-0.1,0.3l-0.2,0.2l-0.5-0.1l-1.3,0.4l-0.4,1.1l-0.1,1.2l1.1,0.8l1.9,1.8l0.1,1.1l-0.2,0.4l-0.8,0.5
	l-0.3,0.1l-0.3,0.2v0.5l0.7,1l0.7,0.8l0,0l-1-0.5l-0.4,0l-1.8,0.9l-0.2,0.7l-1.8,0.2l-0.1-0.7l-0.2-0.5l-0.4-0.5l-0.4-0.3l-0.6-0.1
	l-0.3-0.1l-1-1.7l-0.1-0.8l-0.6-0.2l-0.4,0.3l-0.6,0.6l-0.4,0.6l-0.2,0.7l-2.5-0.4l-0.8-0.2l-0.3-0.2l-0.9,0l0,0v-0.7l-0.2,0.6l0,0
	l-0.2,0l-0.3-0.1l-0.5-0.5l-0.6,0.1l-0.6,0.4l0,0l-0.1-0.6l0.1-2.1l-0.9-2.1l-0.1-0.4l0.4-2.3l0.3-0.3l0.5-0.3l0.4-0.2l0.3-0.2
	l0.3-0.1l0.5-0.2l0-1.3l-0.2-0.7l0.1-0.4l0.5-1l0.5-0.5l0.4,0l0.9,0.6l0-2.4l-0.4-0.5l-0.4-0.2l-0.4-0.4l-0.2-0.5l-0.2-1l0-0.9
	l0.1-2.5l0.5-1.2l0.3-0.1l1.2,0.1l0.4,0.1l0.3,0.4l1,0.7l0.4,0.1l0.2-0.2l-0.3-0.5l-0.6-0.2l-0.4-0.2l-0.5-0.4l-2.1-3.3l0.6-0.7
	l0.6-0.5l1.9-0.6l0.4,0.2l0.4,0.7l0,0.4l1.2,3.4l0.2,0.2l0.2-0.3l-0.1-1.3l-0.5-2.3l-0.2-0.7l-0.2-1.3l0-0.5l0.1-0.7l0.1-0.5
	l0.1-0.4l0-0.6l-0.2-0.2l-0.6,0l-0.4,0.5l-0.8,0.5l-1.6-0.2l-1-0.5l-0.5-0.8l0.1-0.4l0.7-1.1l2-2l0.5,0l0.4,0.1l1.3-0.3l0.9-0.5
	l0.7-0.6l0.2-0.3l0.3-3.4l-0.5,0.2l-0.5,3.1l-0.3,0.5l-0.9,0.5l-1.3,0.4l-0.4,0l-0.3-0.1l-0.5-0.4l-0.4-1.2l-0.4-0.6l-0.9-1
	l-0.5-0.3l-1.2-0.3l-1,0.3l-0.4,0.2l-0.8,1.3l0.2,0.7l0.2,0.2l0.2,1l-0.9,1l-0.9,0.6l-0.4,0.1L311,382l-0.4-0.1l-0.9,0l-0.3,0.1
	l-0.6,0.3l-0.3,0.1l-0.2,0l-0.8-0.5l-1.5-0.3l-0.7,0l0.2-1.3l0.6-0.9l0.2-0.2l0.4,0l0.4,0.1l0.5-0.1l0.8-1.6l-0.4,0.4l-0.3,0.6
	l-0.3,0.3l-0.4,0.1l-1.6-0.2l-0.8-0.5l-1.2-1.5l0-0.6l0.2-0.6l0-1.2l-0.2-0.7l-0.4-1.3l-0.4-0.5l-0.2-0.4l-0.3-1.6l-0.3-1.9l0.6-1.9
	l1.5-4l0.6-0.8l0.5-1.1l-0.1-0.6l-0.4-0.9L305.4,356.3L305.4,356.3z"/>
<path id="CL-ML" class="st0" d="M340.6,294.1L340.6,294.1l-0.5-0.5l-0.1-0.6l-0.1-0.5l-0.4-0.2l-0.3,0l-0.2,0.2l-1,1.3l-0.1,0.4
	l0,0.3l-0.4,0.4l-0.5-0.1l-1.3-0.7l-0.3-0.3l-1.4-1.1l-1.1-0.3l-0.8-0.3l-0.5-0.3l-0.3-0.3l-0.2-0.4l-0.3-0.7l-0.8-0.1l-0.3,0.1
	l-0.3,0.1l-0.3,0l-0.7-0.2l-0.2-0.2l-0.1-0.3l-0.2-0.4l-1-1.1l-0.1,0.5l0,0.4l-0.9,1l-1.6,0l-0.3-0.1l-2.5-1.3l-1.9-1.7l-0.1-0.6
	l-0.2-0.2l-1.4-0.6l0,0l0.2-0.2l0.6-0.6l1.4-1.4l0.2-0.3l0.1-0.5l0-0.6l-0.3-0.8l-0.5-1.3l0-0.4l0.3-0.3l0.5-0.3l0.9-0.8l0.8-2.1
	l0.5-1.3l0.2-0.4l0.5-0.7l0.4-0.3l0.5-0.3l0.7-0.7l0.3-0.6l0.1-0.7l0-0.5l0-0.6l0-0.5l0.1-0.9l0.7-1.6l0.3-0.3l0.3-0.4l0.3-0.9l0,0
	l0.4,0.2l0.2,0.2l0.7,0.9l0.4,0.7l1.8,0.7l1.3,0.4l2,0.1l2,0.4l-0.1-0.5l0-0.3l1.1-0.9l2.3-0.2h0.4l0.5,0.1l3.6,1.1l0.3,0.2l0.5,0.6
	l1.5,1.1l2.3,0.2l0.8,0.1l0.1,0l0,0l0,0.1l0,0.6l0,0.6l0.1,0.3L349,273l-0.2,0.4l-0.9,0.5l-0.4,0.1l-0.4,0l-0.3,0.1l-0.3,0.5l0,0.4
	l0.2,0.5l0.2,0.2l1.4,0.9l0.3,2.4l-0.1,1.6l-0.2,0.3l0.1,0.6l0.4,1l0.4,1.2l-0.4,0.3l-0.3,0.6l-0.1,0.4l0.1,1.2l0.1,1.7l-0.4,1
	l-0.2,0.2l-0.4,0.2l-0.5,0l-1.1,0l-1.5,1.7l-0.2,1.2l0.3,0.7l-0.1,0.4l-3.2,1.2l-0.4-0.1L340.6,294.1z"/>
<path id="CL-AP" class="st0" d="M367.2,38.1h-2l-1.3,1.3l-0.3,1.5l-2,0.3l-2-1.5h-3.5l-2,1.5l-2,1.3l-2.1,0.1l0,0l0-0.6l0.2-0.3
	l0-0.6l-0.7-3.7l-0.2-0.6l-0.1-2.6l0.1-0.8l0.4-1.9l-0.3-0.5l-0.3-0.3l-0.4-0.3l-0.1,0l0.2-0.2L349,30l0.5,0l1,0.1l0.6,0l0.3,0
	l0.6-0.1l1.8-0.7l0.4-0.3l1.2-1.2l0.3-0.3l0.6-1.3l0.3-0.7l0.1-0.4l-0.6-2l-0.1-0.3l-0.2-0.2l-0.2-0.2l0.1-0.6l0.1-0.4l0.3-0.4
	l0.6,0.1l1.1,0.1l2.4-2.1l0.2,1.7l1.4,1.3l0.3,0.2l0.4,0.7l0.1,0.4l0,0.9l0.1,0.5l0.1,0.4l0.2,0.3l2,0.7l0.8,0.1l0,0.4l-0.1,0.3
	l-0.5,0.3l-0.3,0.2l-0.1,0.3l0.2,0.4l0.3,0.3l0.3,0.4l0.2,2.2l0.2,0.3l0.3,0.4l0.1,0.2l0.1,0.3l0,0.3l-0.1,0.7l0,0.7l0.1,0.6
	l0.3,1.1l0.6,1.4l0.2,0.5L367.2,38.1z"/>
<path id="CL-LR" class="st0" d="M330,360.7l-2.3-0.3l-2,0.3l-1,1.5l-1.5,1.8l-2.5-1l-2.3-2l-1.8-1.3l-1.3-2.3l-2-0.8l-2,1.5
	l-1.3-0.3l-0.8-1.3l-3.9-0.3l0,0l0.3-1.6l0.9-1.1l-0.1-1l-0.1-0.4l-0.3-0.4l-0.2-0.4l0.3-0.4l0.2-0.2l2.4-1.2l1.1,0.2l0.3-0.5l0-2
	l1-2.4l0.2-0.4l0.5-1.2l0.4-1.3l-0.3-0.5l0,0l0.4,0.1l0.3,0.1l0.4,0l0.4,0l0.4-0.2l0.3-0.4l0.3-0.4l0.6-0.8l1.9,0l0.3,0.2l0.1,1
	l0.4,0.7l0.4,0.4l0.3,0.2l0.4,0.1l0.4,0l0.4,0l1-0.2l0.4,0l1.9,0.7l0.6,0.3l0.5,0.1l1.2-0.5l0.3-0.2l0.3-0.3l0.4-0.4l0.3-0.2
	l0.3-0.1l2.1,0.2l0.3,0.1l0.4,0.3l0.4,0.3l0.7,0.5l0.9,0l0.3,0l0.2,0.4l0.1,0.4l0,0.4l0,0l-0.1,0.1l-0.2,0.9l0,1.7l0.5,2.1l0.5,1.6
	l-0.4,1.6l-1.1,0.7l-0.5,0.4l-0.3,1.5l0.3,0.7l0.9,1l0.2-0.4l0.4,0.3l0.1,0.6l-0.5,1.2l-0.2,0.3l-0.3,0.1l-0.3-0.3l-0.3,0L330,360.7
	z"/>
<path id="CL-BI" class="st0" d="M339.4,304.4l-0.3,0.1l-0.5-0.3l-0.3,0.1l-0.5,0.1l-0.5-0.2l-0.3-0.3l-0.4-0.1l-0.3-0.1l-0.2,0.3
	l-0.3,0l-0.4-0.3l-0.1-0.3l-0.4-0.3l-0.3-0.3l-0.4,0.1v0.3v0.3v0.4l-0.2,0.3l0,0.6l-0.3-0.1l-0.4,0.1h-0.5l-0.4,0.3l-0.3-0.3
	l-0.3-0.1l-0.6-0.2l-0.5,0l-0.3,0.2l-0.2,0.5l-0.3,0.3l-0.5,0.2l-0.6,0h-0.4l-0.6-0.3h-0.2l-0.2,0.3H327l-0.6-0.2l-0.5,0.3l-0.9-0.2
	l-0.5,0.2v-0.5v-0.6l0.1-0.6l0.4-0.2l0.5-0.6l-0.1-0.4l-0.3-0.1l-0.3-0.3h-0.5l-0.6-0.4l-0.7-1.1l-0.3,0.3l-0.7,0l-0.2-0.4h-0.3
	l-0.2,0.4l-1.9-0.2l0.2-0.6l1.1,0.1l-0.2-0.4l0.3-0.4l-0.5-0.3l-0.2-0.9l0.1-0.4l-0.2-0.6l-0.7-0.8l-0.7-0.1l-0.3-0.6l-0.3-0.3
	l-0.4,0.2l-0.3-0.9l-0.2-0.5l0.3-0.3l-0.1-0.6h-0.6l-0.2-0.6V293l-0.1,0.2l-0.6,1.6l-0.5,1.8l-0.3,1.2l-0.2,0.2l-0.3,0.1h-0.3
	l-0.4-0.1l-0.3-0.3l-0.5-0.2l-0.2,3.1l-0.2,2.9l-0.3,1.2l-0.2,0.4l-0.3,0.4l-0.3,0.2l-0.5,0.2l-0.7,0.2l-0.3,0.1l-0.3,0l-0.6,0
	l-1-0.5l-0.3-0.2l-0.6-0.6l-0.5,0.4l-0.1,0.4l-0.5,2.4l0.1,0.3l0.3,0.3l0.3,0.4l0.2,0.5l0.1,0.6l-0.2,0.6l-0.4,0.4l-0.5,0.6
	l-0.2,0.4l0.2,2l0.8,0.9l0.9,1.6l0.6,1.4l0.3,0.9l0.2,0.7l-0.2,2.4l-0.2,0.3l-0.3,0.3l-0.2,0.4l0.2,0.9l0.1,0l0.3,0.1l0.4,0.2
	l1.1,0.7l3.4-3.3l0.2-0.4l0.1-0.3l0.1-0.5l-0.2-0.4l-0.5-0.2l-0.5-1.3l1.5-2.4l0.4-0.4l0.1-1.5l-0.2-0.3l-0.8-0.1l-0.3-0.3l1.2-1.5
	l1.8-0.3l0.5,0.3l0.5,0.4l0.5,0.3l1.8,0.4l1.1,0l0.8,0.9l0.4,0.9l0.8,1.1l0.6,0.4l0.3,0.1l0.4,0.1l0.5,0.1l0.3,0.2l1.1,1l0.2,0.4
	l0.4,0.5l0.3,0.2l1.9,0.3l1.6-0.2l0.4-0.1l0.4,0.2l0.4,0.6v0.7l-0.1,0.5l0,0.5l0.1,0.4l0.3,1l0.2,0.3l0.5,0.3l0.2-0.4l0.2-0.4
	l0.2-0.2l1.1-0.5l0.8-0.4l0.2-0.2l0.2-0.6l1.3-0.3l3-0.1l0.8,0.1l0-0.6l-1.3-3.1l-0.4-0.7l-0.2-0.8l-0.3-0.7l-0.2-0.8l0-0.6l0.1-0.5
	l0.2-0.3l0.4-0.3l0.2-2.1l-0.1-0.4l-0.4-0.5l-0.3-0.4l-0.4-1.2l0.2-0.5l0.5-0.5l0.2-0.7L339.4,304.4L339.4,304.4z"/>
<path id="CL-NU" class="st0" d="M317.9,285.9l-0.2,0.2l-0.3,2.3l-0.3,3.3l-0.5,1.3v0.2l0.2,0.6h0.6l0.1,0.6l-0.3,0.3l0.2,0.5
	l0.3,0.9l0.4-0.2l0.3,0.3l0.3,0.6l0.7,0.1l0.7,0.8l0.2,0.6l-0.1,0.4l0.2,0.9l0.5,0.3l-0.3,0.4l0.2,0.4l-1.1-0.1l-0.2,0.6l1.9,0.2
	l0.2-0.4h0.3l0.2,0.4l0.7,0l0.3-0.3l0.7,1.1l0.6,0.4h0.5l0.3,0.3l0.3,0.1l0.1,0.4l-0.5,0.6l-0.4,0.2l-0.1,0.6v0.6v0.5l0.5-0.2
	l0.9,0.2l0.5-0.3l0.6,0.2h0.3l0.2-0.3h0.2l0.6,0.3h0.4l0.6,0l0.5-0.2l0.3-0.3l0.2-0.5l0.3-0.2l0.5,0l0.6,0.2l0.3,0.1l0.3,0.3
	l0.4-0.3h0.5l0.4-0.1l0.3,0.1l0-0.6l0.2-0.3v-0.4v-0.3v-0.3l0.4-0.1l0.3,0.3l0.4,0.3l0.1,0.3l0.4,0.3l0.3,0l0.2-0.3l0.3,0.1l0.4,0.1
	l0.3,0.3l0.5,0.2l0.5-0.1l0.3-0.1l0.5,0.3l0.3-0.1l0-0.1l-0.5-2.2l-0.5-2.1l0.6-1.7l1.1-3.1l0.3-1l0.2-0.1l-0.1,0l-0.4-0.4l-0.1-0.6
	l-0.1-0.5l-0.4-0.2l-0.3,0l-0.2,0.2l-1,1.3l-0.1,0.4l0,0.3l-0.4,0.4l-0.5-0.1l-1.3-0.7l-0.3-0.3l-1.4-1.1l-1.1-0.3l-0.8-0.3
	l-0.5-0.3l-0.3-0.3l-0.2-0.4l-0.3-0.7l-0.8-0.1l-0.3,0.1l-0.3,0.1l-0.3,0l-0.7-0.2l-0.2-0.2L328,290l-0.2-0.4l-1-1.1l-0.1,0.5l0,0.4
	l-0.9,1l-1.6,0l-0.3-0.1l-2.5-1.3l-1.9-1.7l-0.1-0.6l-0.2-0.2L317.9,285.9L317.9,285.9z"/>
</svg>
