<svg width="406" height="407" viewBox="0 0 406 407" fill="none" xmlns="http://www.w3.org/2000/svg">
<path d="M4.91376 178.737C1.82004 181.612 0.252319 185.513 0.252319 189.43C0.252319 192.982 1.54398 196.539 4.14819 199.347L192.268 402.053C195.029 405.027 198.898 406.715 202.956 406.715C207.013 406.715 210.888 405.027 213.643 402.053L401.763 199.347C407.242 193.44 406.899 184.216 400.992 178.737C395.091 173.258 385.862 173.602 380.383 179.508L202.956 370.695L25.5163 179.508C20.0371 173.602 10.8136 173.258 4.90698 178.737H4.91376Z" fill="white"/>
<path d="M4.66144 3.89437C1.56772 6.7693 0 10.6704 0 14.587C0 18.1392 1.29166 21.6964 3.89587 24.5037L192.016 227.21C194.776 230.184 198.646 231.872 202.703 231.872C206.76 231.872 210.636 230.184 213.391 227.21L401.511 24.5037C406.99 18.5974 406.646 9.37304 400.74 3.89437C394.839 -1.58483 385.609 -1.24109 380.131 4.6652L202.704 195.852L25.2639 4.6652C19.7848 -1.24106 10.5613 -1.5848 4.65466 3.89437H4.66144Z" fill="white"/>
</svg>
