<svg width="406" height="404" viewBox="0 0 406 404" fill="none" xmlns="http://www.w3.org/2000/svg">
<path d="M400.744 227.977C403.837 225.103 405.405 221.201 405.405 217.285C405.405 213.733 404.113 210.175 401.509 207.368L213.389 4.66145C210.629 1.68745 206.759 -6.91032e-06 202.702 -6.91032e-06C198.645 -6.91032e-06 194.77 1.68745 192.014 4.66145L3.89437 207.368C-1.58483 213.274 -1.24109 222.499 4.6652 227.977C10.5663 233.457 19.7959 233.113 25.2745 227.207L202.701 36.0199L380.141 227.207C385.62 233.113 394.844 233.457 400.751 227.977H400.744Z" fill="white"/>
<path d="M400.744 399.977C403.838 397.103 405.405 393.201 405.405 389.285C405.405 385.733 404.114 382.175 401.509 379.368L213.389 176.661C210.629 173.687 206.759 172 202.702 172C198.645 172 194.77 173.687 192.015 176.661L3.89449 379.368C-1.58471 385.274 -1.24097 394.499 4.66532 399.977C10.5664 405.457 19.796 405.113 25.2747 399.207L202.701 208.02L380.141 399.207C385.621 405.113 394.844 405.457 400.751 399.977H400.744Z" fill="white"/>
</svg>
